<?xml version="1.0" encoding="UTF-8"?>
<svg version="1.1" xmlns="http://www.w3.org/2000/svg" width="500" height="500">
<path d="M0 0 C0 0.99 0 1.98 0 3 C-2.31 3.66 -4.62 4.32 -7 5 C-7 5.66 -7 6.32 -7 7 C-7.66 7 -8.32 7 -9 7 C-9 7.66 -9 8.32 -9 9 C-9.66 9 -10.32 9 -11 9 C-11.19227173 9.86129517 -11.19227173 9.86129517 -11.38842773 10.73999023 C-14.55270924 22.43330518 -21.49721513 33.64400927 -29 43 C-29.66 43.99 -30.32 44.98 -31 46 C-31.66 46 -32.32 46 -33 46 C-33 46.66 -33 47.32 -33 48 C-33.66 48 -34.32 48 -35 48 C-35 48.66 -35 49.32 -35 50 C-36.79583395 51.59903023 -38.58477267 53.0548061 -40.5 54.5 C-41.08096436 54.94069824 -41.66192871 55.38139648 -42.26049805 55.83544922 C-54.08531282 64.65124999 -66.71576696 71.66448558 -80 78 C-81.84133267 78.8863307 -83.68246665 79.77307427 -85.5234375 80.66015625 C-101.30197708 88.24369136 -101.30197708 88.24369136 -107.44140625 91.0234375 C-115.89468452 94.86601927 -124.03244371 99.12937405 -132.125 103.6875 C-133.09759766 104.2345459 -134.07019531 104.7815918 -135.07226562 105.34521484 C-139.20278643 107.70253952 -143.2182732 110.07911415 -147.0546875 112.89453125 C-150 115 -150 115 -152 115 C-152 115.66 -152 116.32 -152 117 C-152.66 117 -153.32 117 -154 117 C-154 117.66 -154 118.32 -154 119 C-154.66 119 -155.32 119 -156 119 C-156.268125 119.5775 -156.53625 120.155 -156.8125 120.75 C-158 123 -158 123 -161 127 C-161.99 130.3 -162.98 133.6 -164 137 C-181.16 137 -198.32 137 -216 137 C-215.04812326 130.33686285 -213.45071377 125.670007 -210.8125 119.625 C-210.43802734 118.73039062 -210.06355469 117.83578125 -209.67773438 116.9140625 C-206.09606494 108.60313983 -201.76218903 101.11817102 -195 95 C-194.49597656 94.48050781 -193.99195313 93.96101563 -193.47265625 93.42578125 C-178.96002168 79.29422242 -154.50537305 72.67409151 -135.46118164 67.68310547 C-132.65737793 66.90490462 -129.99085437 65.92901339 -127.28320312 64.87060547 C-122.45606124 63.02997373 -117.55071299 61.39995646 -112.66552734 59.72094727 C-110.76746232 59.06850253 -108.87005589 58.41414285 -106.97265625 57.75976562 C-105.73902344 57.33501953 -104.50539063 56.91027344 -103.234375 56.47265625 C-102.02201172 56.05516113 -100.80964844 55.63766602 -99.56054688 55.20751953 C-95.25572173 53.74758637 -90.9301461 52.35626068 -86.59472656 50.98999023 C-83.83304893 49.9363016 -81.5166354 48.53974956 -79 47 C-77.2675 46.4121875 -77.2675 46.4121875 -75.5 45.8125 C-70.73664298 44.13346228 -66.60965202 41.41863005 -62.39257812 38.69262695 C-58.19275747 36 -58.19275747 36 -56 36 C-56 35.34 -56 34.68 -56 34 C-54.68799596 32.64567325 -53.35368596 31.31266518 -52 30 C-50.3775352 26.75507041 -50.45036319 23.50720633 -51 20 C-54.51446616 13.90825865 -59.37107603 11.86578645 -66 10 C-75.90291562 7.93248737 -85.00965883 7.73138525 -95 9 C-95 8.01 -95 7.02 -95 6 C-83.80002601 0.91614084 -72.91236686 -1.25362863 -60.6875 -1.3125 C-59.8639502 -1.31797852 -59.04040039 -1.32345703 -58.19189453 -1.32910156 C-51.59047893 -1.25217126 -45.29979931 -0.3932486 -39.1875 2.1875 C-36.55041994 3.16698688 -35.55353903 3.15321117 -33 2 C-32.0409375 1.0409375 -32.0409375 1.0409375 -31.0625 0.0625 C-22.70568215 -8.29431785 -9.69473466 -3.12913626 0 0 Z " fill="#318DA3" transform="translate(347,182)"/>
<path d="M0 0 C0.99 0 1.98 0 3 0 C6.82935486 7.40622479 10.33695909 14.87518285 13.55102539 22.56640625 C14.68359116 25.22924274 15.74922961 27.67380509 17.51953125 29.9765625 C19.71820828 32.98161449 20.77365526 36.39396937 22 39.875 C22.49670863 41.26940599 22.99666758 42.66265877 23.5 44.0546875 C23.74234375 44.73112305 23.9846875 45.40755859 24.234375 46.10449219 C25.0398108 48.2365274 25.0398108 48.2365274 26.75 50.9453125 C29.94751795 58.759247 25.84435686 66.74462742 22.8125 74.0625 C21.98748992 76.11166075 21.16327319 78.16114108 20.33984375 80.2109375 C19.93749512 81.20319336 19.53514648 82.19544922 19.12060547 83.21777344 C17.65517245 86.85613394 16.2500469 90.51418769 14.875 94.1875 C14.40964844 95.42113281 13.94429687 96.65476562 13.46484375 97.92578125 C12.3182686 101.04600807 11.27659187 104.1925638 10.25390625 107.35546875 C9.95178223 108.27110596 9.6496582 109.18674316 9.33837891 110.13012695 C8.7496189 111.92401008 8.17693764 113.72327178 7.62255859 115.52807617 C5.61867892 121.59441016 5.61867892 121.59441016 2.65234375 123.5390625 C-0.21067828 124.03661272 -2.97123926 124.35222592 -5.875 124.5 C-17.31346433 125.2471069 -28.47705898 126.96130935 -39.66015625 129.4140625 C-42.8540916 129.97440203 -45.76597117 130.1082932 -49 130 C-48.30884573 125.86860594 -47.04500157 122.16414011 -45.5625 118.25 C-45.17759399 117.23147949 -45.17759399 117.23147949 -44.78491211 116.19238281 C-41.88734223 108.58907932 -38.80440395 101.05953675 -35.75537109 93.51611328 C-32.72208855 85.95407469 -29.96124085 78.33200055 -27.33447266 70.62084961 C-25.58296583 65.52456007 -23.56806853 60.67708777 -21.2421875 55.8125 C-19.02721752 50.79747363 -17.33177335 45.591604 -15.5390625 40.4140625 C-12.05452918 30.35894792 -8.25148403 20.43979454 -4.1015625 10.640625 C-2.63583829 7.12704499 -1.30643402 3.57550364 0 0 Z " fill="#19245D" transform="translate(213,104)"/>
<path d="M0 0 C3.44886064 1.14962021 3.5802496 1.51937475 5.1640625 4.5859375 C5.55932129 5.34221436 5.95458008 6.09849121 6.36181641 6.87768555 C6.77866699 7.70179932 7.19551758 8.52591309 7.625 9.375 C8.28314697 10.65080933 8.28314697 10.65080933 8.95458984 11.95239258 C12.30738416 18.50306066 15.5102185 25.12358003 18.60400391 31.80029297 C23.28231987 41.87825115 28.36694254 51.76237373 33.36782837 61.68284607 C34.86912649 64.66223429 36.3681511 67.64276297 37.86669922 70.62353516 C38.63519508 72.15026261 39.40509758 73.67628268 40.17626953 75.20166016 C41.30872214 77.44249072 42.43611093 79.68580424 43.5625 81.9296875 C43.90925781 82.61288055 44.25601563 83.29607361 44.61328125 83.99996948 C47 88.7722607 47 88.7722607 47 91 C30.83 91 14.66 91 -2 91 C-4.97 84.4 -7.94 77.8 -11 71 C-13.95589003 65.0872674 -13.95589003 65.0872674 -16.9375 59.1875 C-20.90208511 51.25832977 -24.40084869 43.09809045 -28 35 C-35.26 34.67 -42.52 34.34 -50 34 C-50 33.34 -50 32.68 -50 32 C-48.97261719 31.57589844 -47.94523437 31.15179688 -46.88671875 30.71484375 C-39.27596955 27.51492197 -32.18441483 24.17112172 -25.30859375 19.54296875 C-23 18 -23 18 -19.5 16.125 C-12.17661502 12.03876346 -5.82288893 5.95952712 0 0 Z " fill="#349CAB" transform="translate(319,228)"/>
<path d="M0 0 C8.70644942 -0.37380105 18.28804949 1.33084314 24.99609375 7.15625 C26.37109375 9.40625 26.37109375 9.40625 26.99609375 11.15625 C27.65609375 11.15625 28.31609375 11.15625 28.99609375 11.15625 C37.80558223 29.17294653 45.78146292 47.51207689 53.61523438 65.96923828 C53.88088196 66.59339127 54.14652954 67.21754425 54.42022705 67.86061096 C55.1516989 69.57972454 55.88109748 71.29971986 56.61035156 73.01977539 C57.56788993 75.18705789 58.59315401 77.3252174 59.67089844 79.43530273 C60.99609375 82.15625 60.99609375 82.15625 60.99609375 84.15625 C60.16062012 84.20112549 59.32514648 84.24600098 58.46435547 84.29223633 C55.29158042 84.46801516 52.11957905 84.65384026 48.94775391 84.84594727 C46.92913894 84.96531751 44.90988035 85.07364316 42.890625 85.18164062 C33.9726061 85.73077972 25.66799631 87.02842988 16.99609375 89.15625 C13.57082545 82.49030869 10.45841589 75.75298078 7.55859375 68.84375 C5.04292669 62.90218283 2.49727063 56.99272602 -0.25390625 51.15625 C-2.21367879 46.98296027 -3.9469571 42.7856098 -5.56640625 38.46875 C-7.69773296 32.81227658 -10.21038077 27.50985872 -13.00390625 22.15625 C-14.28468102 19.6820733 -15.55252024 17.2015881 -16.81640625 14.71875 C-17.13077637 14.11490479 -17.44514648 13.51105957 -17.76904297 12.88891602 C-19.19158151 10.09241535 -20.00390625 8.34249608 -20.00390625 5.15625 C-13.28707305 2.54482299 -7.21988199 0.56295376 0 0 Z " fill="#182157" transform="translate(238.00390625,92.84375)"/>
<path d="M0 0 C1.21236328 0.01353516 1.21236328 0.01353516 2.44921875 0.02734375 C3.37154297 0.04474609 3.37154297 0.04474609 4.3125 0.0625 C-1.66117607 6.77915874 -12.37192233 8.15697684 -20.75 10.0625 C-21.83748535 10.31668701 -22.9249707 10.57087402 -24.04541016 10.83276367 C-27.25793137 11.58269948 -30.47255927 12.32301783 -33.6875 13.0625 C-36.2446672 13.65825256 -38.80114826 14.25680895 -41.35717773 14.85742188 C-42.78714739 15.19302861 -44.21762183 15.52649453 -45.64868164 15.85742188 C-48.37981593 16.49271583 -51.02483768 17.17494589 -53.6875 18.0625 C-55.91351032 18.51578615 -58.14332437 18.9504836 -60.375 19.375 C-68.56075983 20.97124322 -76.61635885 22.97060927 -84.6875 25.0625 C-85.69941406 25.30871094 -86.71132812 25.55492187 -87.75390625 25.80859375 C-93.67070635 27.2983144 -98.98385337 29.40462883 -104.47265625 32.07421875 C-106.6875 33.0625 -106.6875 33.0625 -108.6875 33.0625 C-108.15688237 27.86244727 -106.83735305 23.81009216 -104.6875 19.0625 C-104.60846436 18.37768555 -104.52942871 17.69287109 -104.44799805 16.98730469 C-103.6875 15.0625 -103.6875 15.0625 -101.24926758 13.87597656 C-93.01030736 11.52180999 -84.86478897 9.94509077 -76.375 8.8125 C-75.14587891 8.63976562 -73.91675781 8.46703125 -72.65039062 8.2890625 C-69.66393697 7.87072658 -66.67651836 7.46202067 -63.6875 7.0625 C-63.6875 6.7325 -63.6875 6.4025 -63.6875 6.0625 C-62.57761719 6.03671875 -61.46773437 6.0109375 -60.32421875 5.984375 C-48.16382145 5.59679262 -36.1418459 4.45242589 -24.0625 3.0625 C-22.88184464 2.92805481 -22.88184464 2.92805481 -21.67733765 2.79089355 C-19.41713192 2.53190459 -17.15767023 2.26733251 -14.8984375 2 C-14.21488693 1.92082336 -13.53133636 1.84164673 -12.82707214 1.7600708 C-8.40376934 1.22373386 -4.46564802 -0.06471954 0 0 Z " fill="#212A59" transform="translate(263.6875,224.9375)"/>
<path d="M0 0 C2.64 0 5.28 0 8 0 C28 39.53246753 28 39.53246753 28 46 C25.36 46 22.72 46 20 46 C18.35 42.7 16.7 39.4 15 36 C7.74 36 0.48 36 -7 36 C-8.98 40.95 -8.98 40.95 -11 46 C-13.64 46 -16.28 46 -19 46 C-18.40232594 40.88391008 -16.79424485 36.75940023 -14.6875 32.125 C-14.37135742 31.41537109 -14.05521484 30.70574219 -13.72949219 29.97460938 C-12.14542766 26.44255164 -10.51436136 22.94634009 -8.75 19.5 C-7.1857421 16.3714842 -5.97099309 13.31149456 -4.79296875 10.03125 C-3.4388004 6.56244438 -1.71137695 3.3047279 0 0 Z M4 10 C1.61699245 13.52270681 0.24038211 16.9480851 -1 21 C-1.66666667 23 -2.33333333 25 -3 27 C4.18995898 28.2250724 4.18995898 28.2250724 11 26 C9.25192871 20.53262809 7.34205919 15.24175152 5 10 C4.67 10 4.34 10 4 10 Z " fill="#171D47" transform="translate(192,348)"/>
<path d="M0 0 C0.8235498 -0.00547852 1.64709961 -0.01095703 2.49560547 -0.01660156 C10.84977642 0.08075466 18.13587657 1.77769754 25.6875 5.3125 C25.6875 9.28412648 25.50779097 10.10566054 23.5703125 13.28125 C23.12816406 14.01730469 22.68601562 14.75335938 22.23046875 15.51171875 C21.76253906 16.27097656 21.29460937 17.03023437 20.8125 17.8125 C19.89739934 19.32228792 18.98330276 20.83268496 18.0703125 22.34375 C17.66184082 23.00955078 17.25336914 23.67535156 16.83251953 24.36132812 C15.63791705 26.31057482 15.63791705 26.31057482 14.72607422 28.49804688 C13.6875 30.3125 13.6875 30.3125 10.6875 31.3125 C10.67332031 30.66023438 10.65914063 30.00796875 10.64453125 29.3359375 C10.37239658 24.3492536 10.08832551 20.2958112 6.37890625 16.5546875 C-4.99471579 8.20177339 -21.00074491 8.6221184 -34.3125 10.3125 C-34.3125 9.3225 -34.3125 8.3325 -34.3125 7.3125 C-23.11252601 2.22864084 -12.22486686 0.05887137 0 0 Z " fill="#141D4A" transform="translate(286.3125,180.6875)"/>
<path d="M0 0 C0.99 0 1.98 0 3 0 C6.82935486 7.40622479 10.33695909 14.87518285 13.55102539 22.56640625 C14.68359116 25.22924274 15.74922961 27.67380509 17.51953125 29.9765625 C19.71820828 32.98161449 20.77365526 36.39396937 22 39.875 C23.39479125 43.79058585 24.74776424 47.52669721 26.70703125 51.203125 C28.10371054 54.22434062 28.22620414 55.64277517 27.6875 58.875 C27.56761719 59.65617187 27.44773438 60.43734375 27.32421875 61.2421875 C27.21722656 61.82226562 27.11023438 62.40234375 27 63 C25.515 63.495 25.515 63.495 24 64 C22.84856175 61.9195946 21.70375888 59.83598003 20.5625 57.75 C20.23701172 57.16347656 19.91152344 56.57695312 19.57617188 55.97265625 C17.97117383 53.0274021 16.5836512 50.32105755 16 47 C15.34 47 14.68 47 14 47 C13.60167969 45.97519531 13.20335937 44.95039063 12.79296875 43.89453125 C12.25804583 42.53376242 11.72287651 41.17309043 11.1875 39.8125 C10.92646484 39.13896484 10.66542969 38.46542969 10.39648438 37.77148438 C7.64654575 30.79860311 7.64654575 30.79860311 2.875 25.125 C0.31831235 22.22742066 0.3438701 19.78257112 0 16 C-0.33 15.01 -0.66 14.02 -1 13 C-1.66 13 -2.32 13 -3 13 C-2.52060632 8.28596212 -2.03165952 4.33420699 0 0 Z " fill="#0C0F33" transform="translate(213,104)"/>
<path d="M0 0 C-0.375 2.4375 -0.375 2.4375 -1 5 C-1.99 5.495 -1.99 5.495 -3 6 C-3.9075 5.690625 -4.815 5.38125 -5.75 5.0625 C-9.05052574 3.98348197 -11.55707257 3.83605107 -15 4 C-15.33 5.32 -15.66 6.64 -16 8 C-15.10796875 8.30292969 -14.2159375 8.60585938 -13.296875 8.91796875 C-12.12640625 9.33691406 -10.9559375 9.75585938 -9.75 10.1875 C-8.58984375 10.59355469 -7.4296875 10.99960937 -6.234375 11.41796875 C-2.65789865 13.16733218 -1.0920028 14.64057944 1 18 C1.8656716 21.66035945 1.5180872 25.01563432 -0.25 28.375 C-4.69808399 32.50536371 -9.09479444 32.40753928 -14.9375 32.3359375 C-19.36978102 31.84974341 -22.2262833 30.3222872 -26 28 C-25.49396008 25.83125748 -25.00016187 24.00032373 -24 22 C-21.72871083 22.50473093 -19.75687476 23.10876656 -17.625 24.0625 C-14.58055887 25.1498004 -12.21150085 25.21410006 -9 25 C-8.34 24.67 -7.68 24.34 -7 24 C-7.05029164 22.05348635 -7.05029164 22.05348635 -8 20 C-10.63532388 18.5927324 -10.63532388 18.5927324 -13.8125 17.5625 C-18.65182358 15.8707998 -21.19236686 14.35781921 -24 10 C-24.5625 6.5 -24.5625 6.5 -24 3 C-21.91052231 0.33011184 -20.25444343 -1.45640785 -17.125 -2.8125 C-10.75815156 -3.37428074 -5.7609076 -2.8804538 0 0 Z " fill="#30365F" transform="translate(259,362)"/>
<path d="M0 0 C1.125 3.75 1.125 3.75 0 6 C-2.64860427 6.59355614 -5.29197322 6.74209269 -8 7 C-8.66 8.98 -9.32 10.96 -10 13 C-6.7 13 -3.4 13 0 13 C0 14.98 0 16.96 0 19 C-3.3 19 -6.6 19 -10 19 C-10 28.24 -10 37.48 -10 47 C-12.31 47 -14.62 47 -17 47 C-17.19619224 42.70868391 -17.38048583 38.41693898 -17.5625 34.125 C-17.61857422 32.90167969 -17.67464844 31.67835938 -17.73242188 30.41796875 C-17.78076172 29.25136719 -17.82910156 28.08476562 -17.87890625 26.8828125 C-17.9260376 25.80402832 -17.97316895 24.72524414 -18.02172852 23.61376953 C-18 21 -18 21 -17 19 C-17.804375 19.185625 -18.60875 19.37125 -19.4375 19.5625 C-20.283125 19.706875 -21.12875 19.85125 -22 20 C-23 19 -23 19 -23.125 16.5 C-23 14 -23 14 -22 13 C-20.33382885 12.95936168 -18.66611905 12.957279 -17 13 C-17.12375 11.783125 -17.2475 10.56625 -17.375 9.3125 C-17.34275143 5.68131109 -17.05205816 5.06753491 -14.6875 2 C-10.32275285 -1.14472144 -5.12262512 -0.41017461 0 0 Z " fill="#35395F" transform="translate(326,347)"/>
<path d="M0 0 C0 0.66 0 1.32 0 2 C0.66 2.33 1.32 2.66 2 3 C1.93489583 5.01822917 1.86979167 7.03645833 1.8046875 9.0546875 C1.81668311 11.23863645 1.81668311 11.23863645 4 13 C2.75605469 13.30292969 1.51210937 13.60585937 0.23046875 13.91796875 C-8.21489809 16.02655276 -16.25887412 18.12345412 -24.06640625 22.08203125 C-26 23 -26 23 -28 23 C-27.46938237 17.79994727 -26.14985305 13.74759216 -24 9 C-23.93167969 8.31679687 -23.86335937 7.63359375 -23.79296875 6.9296875 C-23 5 -23 5 -20.26953125 3.76953125 C-19.12871094 3.45371094 -17.98789063 3.13789063 -16.8125 2.8125 C-15.68457031 2.48894531 -14.55664062 2.16539062 -13.39453125 1.83203125 C-8.83358494 0.7141008 -4.70292129 0 0 0 Z " fill="#1E285A" transform="translate(183,235)"/>
<path d="M0 0 C1.21236328 0.01353516 1.21236328 0.01353516 2.44921875 0.02734375 C3.37154297 0.04474609 3.37154297 0.04474609 4.3125 0.0625 C-1.78519537 6.90873669 -12.78033884 8.24930474 -21.3125 10.1875 C-23.47140837 10.68987128 -25.63026375 11.19247035 -27.7890625 11.6953125 C-28.80129883 11.92782715 -29.81353516 12.1603418 -30.85644531 12.39990234 C-33.33803123 12.98070816 -35.8059511 13.59693162 -38.2734375 14.234375 C-41.25252154 14.95699035 -43.64651011 15.25256187 -46.6875 15.0625 C-46.0275 14.7325 -45.3675 14.4025 -44.6875 14.0625 C-44.6875 13.4025 -44.6875 12.7425 -44.6875 12.0625 C-40.2325 11.5675 -40.2325 11.5675 -35.6875 11.0625 C-35.6875 10.0725 -35.6875 9.0825 -35.6875 8.0625 C-37.9975 7.4025 -40.3075 6.7425 -42.6875 6.0625 C-42.6875 5.7325 -42.6875 5.4025 -42.6875 5.0625 C-41.64295654 4.94656494 -40.59841309 4.83062988 -39.5222168 4.71118164 C-35.64733231 4.28023108 -31.77293991 3.84498875 -27.89868164 3.40844727 C-26.22172957 3.22010042 -24.54464627 3.03291813 -22.86743164 2.84692383 C-20.4568393 2.5793973 -18.04674971 2.30768795 -15.63671875 2.03515625 C-14.88662033 1.95282242 -14.13652191 1.87048859 -13.36369324 1.78565979 C-8.76983092 1.26097246 -4.62192401 -0.06698441 0 0 Z " fill="#1A2243" transform="translate(263.6875,224.9375)"/>
<path d="M0 0 C3.04786402 1.52393201 3.23062007 3.85113292 4.375 7 C6.17779007 11.86271861 8.09760863 16.59925316 10.30078125 21.29296875 C11 23 11 23 11 25 C8.36 25 5.72 25 3 25 C0.525 20.05 0.525 20.05 -2 15 C-9.26 15 -16.52 15 -24 15 C-25.32 18.3 -26.64 21.6 -28 25 C-30.64 25 -33.28 25 -36 25 C-35.43174347 19.45949887 -33.37113483 14.96284034 -31 10 C-30.67 11.32 -30.34 12.64 -30 14 C-29.34 13.67 -28.68 13.34 -28 13 C-25.89625004 12.84558791 -23.78804881 12.75007361 -21.6796875 12.68359375 C-19.79443359 12.62075195 -19.79443359 12.62075195 -17.87109375 12.55664062 C-16.55238281 12.51732422 -15.23367187 12.47800781 -13.875 12.4375 C-12.53514249 12.39430488 -11.19529844 12.35069027 -9.85546875 12.30664062 C-6.57042185 12.20029019 -3.28529719 12.09826192 0 12 C1.42255043 9.15489914 0.89751482 6.95573983 0.5 3.875 C0.2525 1.956875 0.2525 1.956875 0 0 Z " fill="#3D4265" transform="translate(209,369)"/>
<path d="M0 0 C0.99 0.33 1.98 0.66 3 1 C3.495 2.485 3.495 2.485 4 4 C2.87926138 4.83905565 1.75325453 5.67107831 0.625 6.5 C-0.00148438 6.9640625 -0.62796875 7.428125 -1.2734375 7.90625 C-3 9 -3 9 -5 9 C-5 9.66 -5 10.32 -5 11 C-5.66 11 -6.32 11 -7 11 C-7 11.66 -7 12.32 -7 13 C-7.66 13 -8.32 13 -9 13 C-9.268125 13.5775 -9.53625 14.155 -9.8125 14.75 C-11 17 -11 17 -14 21 C-14.99 24.3 -15.98 27.6 -17 31 C-34.16 31 -51.32 31 -69 31 C-69 30.67 -69 30.34 -69 30 C-68.40574219 29.97494385 -67.81148437 29.9498877 -67.19921875 29.92407227 C-64.46598993 29.80691112 -61.73300633 29.68473727 -59 29.5625 C-58.06542969 29.52318359 -57.13085938 29.48386719 -56.16796875 29.44335938 C-50.72533491 29.19596693 -45.39958209 28.717132 -40 28 C-38.35349928 28 -36.70468094 28.02143445 -35.0625 28.140625 C-32.9812525 28.25099419 -31.06564075 28.29197876 -29 28 C-27.34329588 26.09663191 -27.34329588 26.09663191 -26 24 C-24.00116131 23.65977214 -22.00109278 23.32670903 -20 23 C-17.77022004 21.02098426 -17.77022004 21.02098426 -16 19 C-15.34 19 -14.68 19 -14 19 C-14 17.35 -14 15.7 -14 14 C-12.68 13.67 -11.36 13.34 -10 13 C-9.86722656 12.42765625 -9.73445313 11.8553125 -9.59765625 11.265625 C-9.00619683 9.02349125 -8.26711146 6.91420381 -7.4375 4.75 C-7.16808594 4.04359375 -6.89867187 3.3371875 -6.62109375 2.609375 C-6.41613281 2.07828125 -6.21117187 1.5471875 -6 1 C-5.071875 1.309375 -5.071875 1.309375 -4.125 1.625 C-3.073125 1.810625 -3.073125 1.810625 -2 2 C-1.34 1.34 -0.68 0.68 0 0 Z " fill="#53AFB8" transform="translate(200,288)"/>
<path d="M0 0 C0.99 0 1.98 0 3 0 C7.19464435 8.11271875 10.9688079 16.3428116 14.58203125 24.7265625 C15.3506808 26.50102069 16.13518511 28.27037021 17 30 C15.68 30.33 14.36 30.66 13 31 C13 30.01 13 29.02 13 28 C12.05021103 25.84971696 12.05021103 25.84971696 11 24 C9.68 24 8.36 24 7 24 C7.33 26.31 7.66 28.62 8 31 C5.01058532 29.50529266 4.46221468 26.92442937 3 24 C2.34 23.67 1.68 23.34 1 23 C0.61250787 20.67504723 0.28241883 18.3400417 0 16 C-0.33 15.01 -0.66 14.02 -1 13 C-1.66 13 -2.32 13 -3 13 C-2.52060632 8.28596212 -2.03165952 4.33420699 0 0 Z " fill="#090C30" transform="translate(213,104)"/>
<path d="M0 0 C1.98 0 3.96 0 6 0 C6 11.22 6 22.44 6 34 C4.02 34 2.04 34 0 34 C-1.81268688 32.18731312 -1.13039163 29.39128747 -1.1328125 26.953125 C-1.13410156 25.715625 -1.13539063 24.478125 -1.13671875 23.203125 C-1.13285156 21.89859375 -1.12898438 20.5940625 -1.125 19.25 C-1.12886719 17.9609375 -1.13273437 16.671875 -1.13671875 15.34375 C-1.13478516 13.47976563 -1.13478516 13.47976563 -1.1328125 11.578125 C-1.13168457 10.43762695 -1.13055664 9.29712891 -1.12939453 8.12207031 C-1.01217097 5.29366493 -0.6472241 2.74957767 0 0 Z " fill="#262C57" transform="translate(279,360)"/>
<path d="M0 0 C2.47436523 -0.37231445 2.47436523 -0.37231445 5.55859375 -0.36328125 C6.66654297 -0.36263672 7.77449219 -0.36199219 8.91601562 -0.36132812 C10.65915039 -0.3371582 10.65915039 -0.3371582 12.4375 -0.3125 C13.59572266 -0.31572266 14.75394531 -0.31894531 15.94726562 -0.32226562 C24.59955495 -0.26696337 24.59955495 -0.26696337 28 2 C28 2.99 28 3.98 28 5 C25.04335481 6.4783226 22.25770263 6.06032783 19 6 C19 6.66 19 7.32 19 8 C18.34 8 17.68 8 17 8 C17 8.66 17 9.32 17 10 C11.85910687 11.85072153 9.04468729 12.21474076 4 10 C4 9.34 4 8.68 4 8 C3.01 7.67 2.02 7.34 1 7 C1.66 5.68 2.32 4.36 3 3 C1.35 3 -0.3 3 -2 3 C-1.34 2.01 -0.68 1.02 0 0 Z " fill="#1C2450" transform="translate(200,231)"/>
<path d="M0 0 C1.98 0.66 3.96 1.32 6 2 C6.16873478 3.43725871 6.33490737 4.87481838 6.5 6.3125 C6.5928125 7.11300781 6.685625 7.91351563 6.78125 8.73828125 C7 11 7 11 7 14 C3.33135949 15.68158146 0.50583953 16.24028871 -3.51953125 16.1953125 C-5.0519043 16.18564453 -5.0519043 16.18564453 -6.61523438 16.17578125 C-7.67033203 16.15902344 -8.72542969 16.14226562 -9.8125 16.125 C-10.88693359 16.11597656 -11.96136719 16.10695313 -13.06835938 16.09765625 C-15.71246854 16.07415306 -18.35611872 16.04129575 -21 16 C-20.49855469 15.38640625 -19.99710938 14.7728125 -19.48046875 14.140625 C-17.72497014 12.11827564 -17.72497014 12.11827564 -18.3125 9.75 C-18.6528125 8.88375 -18.6528125 8.88375 -19 8 C-18.0925 8.185625 -17.185 8.37125 -16.25 8.5625 C-10.82624421 9.36767612 -5.41746155 8.57821839 0 8 C0.79953138 4.71303767 1.09658936 3.28976808 0 0 Z " fill="#0F1542" transform="translate(204,366)"/>
<path d="M0 0 C1.4540625 0.0309375 1.4540625 0.0309375 2.9375 0.0625 C3.5975 1.3825 4.2575 2.7025 4.9375 4.0625 C5.5975 4.0625 6.2575 4.0625 6.9375 4.0625 C7.02636184 7.26152639 6.84808531 9.98927456 5.9375 13.0625 C4.9475 13.0625 3.9575 13.0625 2.9375 13.0625 C2.6075 12.4025 2.2775 11.7425 1.9375 11.0625 C-5.3225 10.7325 -12.5825 10.4025 -20.0625 10.0625 C-20.0625 9.4025 -20.0625 8.7425 -20.0625 8.0625 C-18.91910156 7.56878906 -17.77570313 7.07507813 -16.59765625 6.56640625 C-15.106717 5.91939488 -13.6158345 5.2722527 -12.125 4.625 C-11.37025391 4.29951172 -10.61550781 3.97402344 -9.83789062 3.63867188 C-1.5451935 0.03153456 -1.5451935 0.03153456 0 0 Z " fill="#328AA0" transform="translate(289.0625,251.9375)"/>
<path d="M0 0 C0.33 0 0.66 0 1 0 C1.25 7.625 1.25 7.625 -1 11 C-5.78583991 14.15526613 -11.50613514 13.60264334 -17 13 C-19.99780503 11.94894031 -22.27417923 10.67742817 -25 9 C-24.49396008 6.83125748 -24.00016187 5.00032373 -23 3 C-20.78105868 3.49309807 -18.91710633 4.04144683 -16.875 5.0625 C-12.61244313 6.4524642 -8.44592142 6.15539143 -4 6 C-4 5.01 -4 4.02 -4 3 C-2.68 3 -1.36 3 0 3 C0 2.01 0 1.02 0 0 Z " fill="#181D4A" transform="translate(258,381)"/>
<path d="M0 0 C1.89786929 0.76580691 3.79321244 1.53787577 5.6875 2.3125 C6.74324219 2.74175781 7.79898438 3.17101562 8.88671875 3.61328125 C13.29064799 5.57488085 16.29456617 6.94184926 19 11 C19.25760279 13.69452521 19.08900053 16.28548375 19 19 C18.34 17.68 17.68 16.36 17 15 C15.68 15 14.36 15 13 15 C13 15.99 13 16.98 13 18 C12.34 17.67 11.68 17.34 11 17 C10.91492188 16.37222656 10.82984375 15.74445313 10.7421875 15.09765625 C10.1636408 12.70806168 10.1636408 12.70806168 7.3828125 11.62109375 C6.30773437 11.23050781 5.23265625 10.83992188 4.125 10.4375 C-2.80760369 7.88997696 -2.80760369 7.88997696 -5 5 C-5 4.34 -5 3.68 -5 3 C-3.35 2.67 -1.7 2.34 0 2 C0 1.34 0 0.68 0 0 Z " fill="#3A4064" transform="translate(241,369)"/>
<path d="M0 0 C0.99 0.33 1.98 0.66 3 1 C3.474375 2.155 3.94875 3.31 4.4375 4.5 C5.57452585 8.11055592 5.57452585 8.11055592 8.1875 8.9375 C8.785625 8.958125 9.38375 8.97875 10 9 C10 9.33 10 9.66 10 10 C11.23492187 9.98839844 12.46984375 9.97679687 13.7421875 9.96484375 C25.20227081 9.89199459 36.56642704 10.22671487 48 11 C48.66 9.02 49.32 7.04 50 5 C52.32789515 7.83395931 53.07377893 9.29511572 54 13 C37.83 13 21.66 13 5 13 C0 2 0 2 0 0 Z " fill="#40A8AF" transform="translate(312,306)"/>
<path d="M0 0 C1.50433594 0.01353516 1.50433594 0.01353516 3.0390625 0.02734375 C3.80992187 0.03894531 4.58078125 0.05054688 5.375 0.0625 C3.0625 2.125 3.0625 2.125 0.375 4.0625 C-0.615 3.7325 -1.605 3.4025 -2.625 3.0625 C-4.97948165 5.61318845 -5.60827924 6.77267358 -5.8125 10.3125 C-5.750625 11.22 -5.68875 12.1275 -5.625 13.0625 C-6.615 12.4025 -7.605 11.7425 -8.625 11.0625 C-13.99444527 13.44892012 -15.39190802 16.96103988 -17.625 22.0625 C-20.41071429 27.95535714 -20.41071429 27.95535714 -22.625 29.0625 C-22.934375 29.7225 -23.24375 30.3825 -23.5625 31.0625 C-24.625 33.0625 -24.625 33.0625 -27.625 34.0625 C-27.625 33.4025 -27.625 32.7425 -27.625 32.0625 C-26.965 32.0625 -26.305 32.0625 -25.625 32.0625 C-25.50568115 31.48363037 -25.3863623 30.90476074 -25.26342773 30.30834961 C-24.59302884 27.95003244 -23.68144898 26.21962978 -22.41015625 24.12890625 C-21.97123047 23.39736328 -21.53230469 22.66582031 -21.08007812 21.91210938 C-20.62052734 21.15736328 -20.16097656 20.40261719 -19.6875 19.625 C-16.9829379 15.16840192 -14.53549283 10.9231492 -12.625 6.0625 C-8.29426957 1.29869653 -6.36113963 -0.07396674 0 0 Z " fill="#265782" transform="translate(325.625,178.9375)"/>
<path d="M0 0 C-1.32 0.33 -2.64 0.66 -4 1 C-4 1.66 -4 2.32 -4 3 C-4.33 3.33 -4.66 3.66 -5 4 C-5 4.66 -5 5.32 -5 6 C-5.66 6 -6.32 6 -7 6 C-7 6.99 -7 7.98 -7 9 C-6.34 9.33 -5.68 9.66 -5 10 C-6.57587891 9.87431641 -6.57587891 9.87431641 -8.18359375 9.74609375 C-15.61256437 9.19334296 -22.60283505 8.81116992 -30 10 C-30 9.01 -30 8.02 -30 7 C-20.55464232 2.7125911 -10.4490148 -0.31663681 0 0 Z " fill="#2C3256" transform="translate(282,181)"/>
<path d="M0 0 C0.598125 0.33 1.19625 0.66 1.8125 1 C4.05386471 2.20787988 4.05386471 2.20787988 7 2 C5.1875 4 5.1875 4 3 6 C2.01 6 1.02 6 0 6 C0 7.65 0 9.3 0 11 C-0.556875 11.12375 -1.11375 11.2475 -1.6875 11.375 C-5.99745221 12.53985195 -9.64003992 14.00003565 -13 17 C-13.33 17.99 -13.66 18.98 -14 20 C-15.75 21.3125 -15.75 21.3125 -18 22 C-20.75 21.125 -20.75 21.125 -23 20 C-23 19.01 -23 18.02 -23 17 C-22.18015625 16.60167969 -21.3603125 16.20335937 -20.515625 15.79296875 C-19.43796875 15.26316406 -18.3603125 14.73335937 -17.25 14.1875 C-16.18265625 13.66542969 -15.1153125 13.14335937 -14.015625 12.60546875 C-11.03887543 11.11982421 -11.03887543 11.11982421 -8.734375 9.30078125 C-7 8 -7 8 -5 8 C-5 7.34 -5 6.68 -5 6 C-3.68799596 4.64567325 -2.35368596 3.31266518 -1 2 C-0.67 1.34 -0.34 0.68 0 0 Z " fill="#477E94" transform="translate(296,210)"/>
<path d="M0 0 C1.125 3.75 1.125 3.75 0 6 C-2.02543556 6.25719817 -4.05350224 6.50842122 -6.08984375 6.65625 C-8.23522156 6.85476212 -8.23522156 6.85476212 -10 9 C-10.103125 9.66 -10.20625 10.32 -10.3125 11 C-10.539375 11.66 -10.76625 12.32 -11 13 C-13.54296875 14.125 -13.54296875 14.125 -16 15 C-16.76539589 5.13489736 -16.76539589 5.13489736 -14.1875 1.3125 C-9.47913904 -0.62623686 -5.02327615 -0.31670393 0 0 Z " fill="#161C45" transform="translate(326,347)"/>
<path d="M0 0 C0 3.23915725 -0.67712917 4.92366902 -1.9375 7.875 C-3.37684087 11.24893882 -4.38366486 14.37984201 -5 18 C-4.34 18.33 -3.68 18.66 -3 19 C-3.804375 19.5775 -4.60875 20.155 -5.4375 20.75 C-8.02152561 23.01890054 -8.68044231 23.69790388 -9 27 C-9 27.99 -9 28.98 -9 30 C-9.62599617 31.68236471 -10.28752268 33.3523962 -11 35 C-12.65 35 -14.3 35 -16 35 C-14.38911359 28.32153344 -11.87536901 22.08677931 -9.125 15.8125 C-8.79757813 15.05275879 -8.47015625 14.29301758 -8.1328125 13.51025391 C-5.91230502 8.53471248 -3.29846108 4.33856814 0 0 Z " fill="#40ABAF" transform="translate(147,282)"/>
<path d="M0 0 C0.33 1.32 0.66 2.64 1 4 C1.66 3.67 2.32 3.34 3 3 C5.03232634 2.91472372 7.06747006 2.89283865 9.1015625 2.90234375 C10.31328125 2.90556641 11.525 2.90878906 12.7734375 2.91210938 C14.04445312 2.92048828 15.31546875 2.92886719 16.625 2.9375 C17.90375 2.94201172 19.1825 2.94652344 20.5 2.95117188 C23.66671292 2.96298797 26.83333356 2.97946185 30 3 C29.67 3.66 29.34 4.32 29 5 C21.74 5 14.48 5 7 5 C5.68 8.3 4.36 11.6 3 15 C0.36 15 -2.28 15 -5 15 C-4.43174347 9.45949887 -2.37113483 4.96284034 0 0 Z " fill="#7A83A2" transform="translate(178,379)"/>
<path d="M0 0 C1.51733949 2.38282555 2.09073263 3.50305158 1.57421875 6.33203125 C1.28160156 7.15058594 0.98898438 7.96914062 0.6875 8.8125 C-0.68850922 12.92226205 -1.53241777 16.69824347 -2 21 C0.31 21 2.62 21 5 21 C4.67 21.66 4.34 22.32 4 23 C1.4375 23.625 1.4375 23.625 -1 24 C-0.67 24.66 -0.34 25.32 0 26 C-2.97 26.33 -5.94 26.66 -9 27 C-8.27929102 22.43550978 -6.72185725 18.34817807 -5.0625 14.0625 C-3.27432574 9.40280504 -1.53879862 4.75020444 0 0 Z " fill="#2B355B" transform="translate(173,207)"/>
<path d="M0 0 C2.4375 0.1875 2.4375 0.1875 5 1 C6.45713624 3.15101064 7 4.40286494 7 7 C8.32 7 9.64 7 11 7 C11.99 10.3 12.98 13.6 14 17 C11 16 11 16 9.3125 12.9375 C8.879375 11.968125 8.44625 10.99875 8 10 C7.34 11.98 6.68 13.96 6 16 C2.53898257 12.99663777 1.30647436 10.68719232 0.25 6.25 C0.00765625 5.26515625 -0.2346875 4.2803125 -0.484375 3.265625 C-0.65453125 2.51796875 -0.8246875 1.7703125 -1 1 C-0.67 0.67 -0.34 0.34 0 0 Z " fill="#080A32" transform="translate(220,127)"/>
<path d="M0 0 C0.66 0 1.32 0 2 0 C5.88283501 7.18794717 7.72442619 11.90846172 6 20 C5.01 20.33 4.02 20.66 3 21 C-2.22741511 12.28179426 -2.22741511 12.28179426 -1.3125 7.125 C-0.879375 6.09375 -0.44625 5.0625 0 4 C0 2.68 0 1.36 0 0 Z " fill="#20223D" transform="translate(234,147)"/>
<path d="M0 0 C0.33 0.66 0.66 1.32 1 2 C1.99 2.33 2.98 2.66 4 3 C5.23759823 6.71279469 5.35608897 10.31306346 5.5625 14.1875 C5.60568359 14.93708984 5.64886719 15.68667969 5.69335938 16.45898438 C5.79922685 18.30578375 5.9000976 20.15286834 6 22 C4.02 22 2.04 22 0 22 C0 14.74 0 7.48 0 0 Z " fill="#131846" transform="translate(310,372)"/>
<path d="M0 0 C2.34778144 2.94009979 4.04182349 5.89021642 5.6640625 9.28125 C6.14617187 10.28800781 6.62828125 11.29476563 7.125 12.33203125 C7.62 13.37746094 8.115 14.42289062 8.625 15.5 C9.12773437 16.54542969 9.63046875 17.59085937 10.1484375 18.66796875 C14.19624452 27.16618725 14.19624452 27.16618725 15 31 C13.16796875 30.86328125 13.16796875 30.86328125 11 30 C9.55078125 27.41796875 9.55078125 27.41796875 8.3125 24.1875 C7.89613281 23.12917969 7.47976563 22.07085937 7.05078125 20.98046875 C6.23026015 18.65311708 5.53005202 16.40562069 5 14 C3.68 14 2.36 14 1 14 C1 13.34 1 12.68 1 12 C1.66 12 2.32 12 3 12 C2.72382467 10.05925139 2.72382467 10.05925139 2 8 C1.01 7.34 0.02 6.68 -1 6 C-1.25 3.4375 -1.25 3.4375 -1 1 C-0.67 0.67 -0.34 0.34 0 0 Z M9 30 C9.99 30.495 9.99 30.495 11 31 C10.01 31.495 10.01 31.495 9 32 C9 31.34 9 30.68 9 30 Z " fill="#5EA6B2" transform="translate(339,264)"/>
<path d="M0 0 C0 0.33 0 0.66 0 1 C-2.64 1 -5.28 1 -8 1 C-8 1.66 -8 2.32 -8 3 C-6.35 3 -4.7 3 -3 3 C-3 3.66 -3 4.32 -3 5 C-1.68 5.66 -0.36 6.32 1 7 C-1.89444095 7.6732656 -4.79030013 8.33880404 -7.6875 9 C-8.50412109 9.19078125 -9.32074219 9.3815625 -10.16210938 9.578125 C-14.17239326 10.48733916 -17.85717252 11.27000098 -22 11 C-21.34 10.67 -20.68 10.34 -20 10 C-20 9.34 -20 8.68 -20 8 C-15.545 7.505 -15.545 7.505 -11 7 C-11 6.01 -11 5.02 -11 4 C-13.31 3.34 -15.62 2.68 -18 2 C-18 1.67 -18 1.34 -18 1 C-12.03325384 -0.32594359 -6.07416385 -0.0884587 0 0 Z " fill="#262E56" transform="translate(239,229)"/>
<path d="M0 0 C0.33 1.32 0.66 2.64 1 4 C4.3 4 7.6 4 11 4 C11 5.98 11 7.96 11 10 C7.7 10 4.4 10 1 10 C1 12.64 1 15.28 1 18 C0.67 18 0.34 18 0 18 C-0.103125 16.783125 -0.20625 15.56625 -0.3125 14.3125 C-0.76219312 10.58930552 -1.78382778 8.08337005 -4 5 C-2.68 4.67 -1.36 4.34 0 4 C0 2.68 0 1.36 0 0 Z " fill="#444C72" transform="translate(315,356)"/>
<path d="M0 0 C0.33 0 0.66 0 1 0 C1 1.65 1 3.3 1 5 C-16.16 5 -33.32 5 -51 5 C-51 4.67 -51 4.34 -51 4 C-50.40574219 3.97494385 -49.81148437 3.9498877 -49.19921875 3.92407227 C-46.46598993 3.80691112 -43.73300633 3.68473727 -41 3.5625 C-40.06542969 3.52318359 -39.13085938 3.48386719 -38.16796875 3.44335938 C-32.72533491 3.19596693 -27.39958209 2.717132 -22 2 C-19.50104795 2 -17.04464644 2.0848512 -14.55078125 2.21875 C-13.70322266 2.26386719 -12.85566406 2.30898438 -11.98242188 2.35546875 C-11.10134766 2.40316406 -10.22027344 2.45085937 -9.3125 2.5 C-7.97348633 2.57154297 -7.97348633 2.57154297 -6.60742188 2.64453125 C-4.40490896 2.76231269 -2.20243811 2.88082937 0 3 C0 2.01 0 1.02 0 0 Z " fill="#84C7CA" transform="translate(182,314)"/>
<path d="M0 0 C2.33697029 2.33697029 3.27094054 4.49097899 4.625 7.5 C5.07101563 8.4796875 5.51703125 9.459375 5.9765625 10.46875 C7 13 7 13 7 15 C4.525 14.01 4.525 14.01 2 13 C2.66 14.65 3.32 16.3 4 18 C3.34 18.33 2.68 18.66 2 19 C1.67 19.66 1.34 20.32 1 21 C0.59007812 20.10796875 0.18015625 19.2159375 -0.2421875 18.296875 C-0.78101563 17.12640625 -1.31984375 15.9559375 -1.875 14.75 C-2.67550781 13.00976562 -2.67550781 13.00976562 -3.4921875 11.234375 C-4.6263719 8.80146131 -5.78088096 6.39089364 -7 4 C-5.35 4 -3.7 4 -2 4 C-2.33 5.32 -2.66 6.64 -3 8 C-2.34 8.33 -1.68 8.66 -1 9 C-1.33 9.66 -1.66 10.32 -2 11 C-1.01 10.67 -0.02 10.34 1 10 C0.67 6.7 0.34 3.4 0 0 Z " fill="#33395C" transform="translate(202,353)"/>
<path d="M0 0 C3.93345152 1.31115051 4.32374076 2.84212778 6.25 6.4375 C7.06210937 7.92056641 7.06210937 7.92056641 7.890625 9.43359375 C8.25671875 10.28050781 8.6228125 11.12742188 9 12 C8.67 12.66 8.34 13.32 8 14 C3.25 13.25 3.25 13.25 1 11 C-0.31747324 10.30251417 -1.64914193 9.63040043 -3 9 C-2.25 2.25 -2.25 2.25 0 0 Z " fill="#448096" transform="translate(319,228)"/>
<path d="M0 0 C1.32 0.99 2.64 1.98 4 3 C3.67 3.53625 3.34 4.0725 3 4.625 C1.29136707 8.68300322 1.89855003 12.3462113 2.5625 16.625 C2.95525371 19.65481435 3.00012776 21.19964227 2 24 C1.67 24.99 1.34 25.98 1 27 C-0.86723934 23.82287167 -1.24731162 21.49816276 -1.23046875 17.83203125 C-1.22853516 16.85685547 -1.22660156 15.88167969 -1.22460938 14.87695312 C-1.21236328 13.86568359 -1.20011719 12.85441406 -1.1875 11.8125 C-1.18685547 10.78962891 -1.18621094 9.76675781 -1.18554688 8.71289062 C-1.14032251 1.14032251 -1.14032251 1.14032251 0 0 Z " fill="#5A5E7A" transform="translate(279,364)"/>
<path d="M0 0 C2 3 2 3 1.6875 5.625 C1 8 1 8 0 9 C-3 9.125 -3 9.125 -6 9 C-7 8 -7 8 -7.0625 4.4375 C-7.041875 3.303125 -7.02125 2.16875 -7 1 C-4.46578263 -0.26710868 -2.80561762 -0.28056176 0 0 Z " fill="#3F4264" transform="translate(285,346)"/>
<path d="M0 0 C3.96074927 0.56582132 6.72259306 1.69695729 10 4 C12.67927341 8.01891012 12.15601248 10.24161923 12 15 C11.34 13.68 10.68 12.36 10 11 C8.68 11 7.36 11 6 11 C6 11.99 6 12.98 6 14 C5.34 13.67 4.68 13.34 4 13 C4 11.35 4 9.7 4 8 C4.66 8 5.32 8 6 8 C5.01 7.01 4.02 6.02 3 5 C3.33 4.01 3.66 3.02 4 2 C2.68 1.67 1.36 1.34 0 1 C0 0.67 0 0.34 0 0 Z " fill="#393C66" transform="translate(248,373)"/>
<path d="M0 0 C2.97 0 5.94 0 9 0 C8.46972205 4.5073626 6.80388725 7.4539073 4 11 C3.01 11 2.02 11 1 11 C0 3.375 0 3.375 0 0 Z " fill="#276E8A" transform="translate(312,217)"/>
<path d="M0 0 C2.56687367 3.8503105 1.83288724 5.58569763 1 10 C0.34 10 -0.32 10 -1 10 C-1.09796875 10.65226563 -1.1959375 11.30453125 -1.296875 11.9765625 C-2.25751007 17.59130884 -3.30181205 21.60840181 -7 26 C-7.66 26 -8.32 26 -9 26 C-6.56696874 17.12157015 -3.29163506 8.58594775 0 0 Z " fill="#4B5072" transform="translate(203,129)"/>
<path d="M0 0 C-0.66 0 -1.32 0 -2 0 C-2.33 1.65 -2.66 3.3 -3 5 C-9.76485645 6.6120509 -16.04958914 7.26618595 -23 7 C-18.66358054 4.10905369 -13.89694973 2.71638438 -9 1 C-7.845 0.566875 -6.69 0.13375 -5.5 -0.3125 C-3 -1 -3 -1 0 0 Z " fill="#569BA9" transform="translate(218,249)"/>
<path d="M0 0 C4.29 0 8.58 0 13 0 C13 1.98 13 3.96 13 6 C9.37 6 5.74 6 2 6 C0 2 0 2 0 0 Z " fill="#171D4E" transform="translate(190,375)"/>
<path d="M0 0 C3.125 -0.1875 3.125 -0.1875 6 0 C6 0.66 6 1.32 6 2 C6.66 2.66 7.32 3.32 8 4 C8 4.99 8 5.98 8 7 C10.475 7.99 10.475 7.99 13 9 C12.67 9.99 12.34 10.98 12 12 C9.69 11.67 7.38 11.34 5 11 C4.67 10.01 4.34 9.02 4 8 C3.01 7.67 2.02 7.34 1 7 C1.66 5.68 2.32 4.36 3 3 C1.35 3 -0.3 3 -2 3 C-1.34 2.01 -0.68 1.02 0 0 Z " fill="#131E53" transform="translate(200,231)"/>
<path d="M0 0 C0.598125 0.33 1.19625 0.66 1.8125 1 C4.05386471 2.20787988 4.05386471 2.20787988 7 2 C5.1875 4 5.1875 4 3 6 C2.01 6 1.02 6 0 6 C0 7.65 0 9.3 0 11 C-0.598125 11.144375 -1.19625 11.28875 -1.8125 11.4375 C-3.56150404 11.8872439 -5.28677023 12.42892341 -7 13 C-7 11.35 -7 9.7 -7 8 C-6.34 8 -5.68 8 -5 8 C-5 7.34 -5 6.68 -5 6 C-3.68799596 4.64567325 -2.35368596 3.31266518 -1 2 C-0.67 1.34 -0.34 0.68 0 0 Z " fill="#417793" transform="translate(296,210)"/>
<path d="M0 0 C0.33 0.99 0.66 1.98 1 3 C-0.175625 3.433125 -0.175625 3.433125 -1.375 3.875 C-4.09671632 4.84912254 -4.09671632 4.84912254 -6 7 C-10.13830989 6.69903201 -12.51847024 6.32101984 -16 4 C-14.68 3.67 -13.36 3.34 -12 3 C-12 2.34 -12 1.68 -12 1 C-8.0186217 -0.3271261 -4.14954773 -0.06915913 0 0 Z " fill="#0A123A" transform="translate(290,181)"/>
<path d="M0 0 C2.32789515 2.83395931 3.07377893 4.29511572 4 8 C-11.18 8 -26.36 8 -42 8 C-42 7.67 -42 7.34 -42 7 C-27.81 7 -13.62 7 1 7 C0.505 3.535 0.505 3.535 0 0 Z " fill="#5BA3A8" transform="translate(362,311)"/>
<path d="M0 0 C0 0.66 0 1.32 0 2 C-1.65 2.66 -3.3 3.32 -5 4 C-4.67 4.66 -4.34 5.32 -4 6 C-4.99 6.33 -5.98 6.66 -7 7 C-7.33 6.67 -7.66 6.34 -8 6 C-9.66949355 6.03767954 -11.33759288 6.15428796 -13 6.3125 C-13.9075 6.39113281 -14.815 6.46976563 -15.75 6.55078125 C-16.4925 6.69902344 -17.235 6.84726563 -18 7 C-18.33 7.66 -18.66 8.32 -19 9 C-19 8.34 -19 7.68 -19 7 C-19.99 6.67 -20.98 6.34 -22 6 C-19.08666921 4.99009308 -16.16884681 3.99384048 -13.25 3 C-12.0125 2.57074219 -12.0125 2.57074219 -10.75 2.1328125 C-9.95078125 1.86210937 -9.1515625 1.59140625 -8.328125 1.3125 C-7.5949707 1.06113281 -6.86181641 0.80976563 -6.10644531 0.55078125 C-4 0 -4 0 0 0 Z " fill="#5A94A4" transform="translate(249,238)"/>
<path d="M0 0 C6.19887485 -0.37952295 10.4477112 0.1647887 16 3 C15 5 15 5 12.6875 6.125 C10 7 10 7 6 7 C6 5.68 6 4.36 6 3 C5.01 3 4.02 3 3 3 C3 2.34 3 1.68 3 1 C2.01 0.67 1.02 0.34 0 0 Z " fill="#546982" transform="translate(332,180)"/>
<path d="M0 0 C0.66 0.33 1.32 0.66 2 1 C1.34 3.97 0.68 6.94 0 10 C-2.64 10 -5.28 10 -8 10 C-7.67 8.02 -7.34 6.04 -7 4 C-6.030625 3.71125 -5.06125 3.4225 -4.0625 3.125 C-0.89335797 2.35785318 -0.89335797 2.35785318 0 0 Z " fill="#303453" transform="translate(181,384)"/>
<path d="M0 0 C2 1 2 1 3.0625 2.9375 C4.37784905 7.23430691 4.67036215 11.53253967 5 16 C3.35 16.99 1.7 17.98 0 19 C-0.12375 18.030625 -0.2475 17.06125 -0.375 16.0625 C-0.58125 15.051875 -0.7875 14.04125 -1 13 C-1.66 12.67 -2.32 12.34 -3 12 C-2.01 12 -1.02 12 0 12 C1.42255043 9.15489914 0.89751482 6.95573983 0.5 3.875 C0.335 2.59625 0.17 1.3175 0 0 Z " fill="#15184A" transform="translate(209,369)"/>
<path d="M0 0 C0 3.23915725 -0.67712917 4.92366902 -1.9375 7.875 C-3.37684087 11.24893882 -4.38366486 14.37984201 -5 18 C-4.34 18.33 -3.68 18.66 -3 19 C-4.98 19.99 -4.98 19.99 -7 21 C-7 19.68 -7 18.36 -7 17 C-7.66 17 -8.32 17 -9 17 C-7.46933687 11.18348012 -4.32262613 4.32262613 0 0 Z " fill="#4FB1B9" transform="translate(147,282)"/>
<path d="M0 0 C-5.37205707 3.35159313 -10.81895348 6.51530833 -16.4375 9.4375 C-17.42621094 9.95183594 -18.41492188 10.46617187 -19.43359375 10.99609375 C-22 12 -22 12 -25 11 C-23.68 10.67 -22.36 10.34 -21 10 C-20.67 8.68 -20.34 7.36 -20 6 C-15.545 5.505 -15.545 5.505 -11 5 C-10.67 4.01 -10.34 3.02 -10 2 C-6.72062432 -1.27937568 -4.29494642 -1.19503739 0 0 Z " fill="#73AAB8" transform="translate(293,246)"/>
<path d="M0 0 C-0.99 0.495 -0.99 0.495 -2 1 C-2 1.66 -2 2.32 -2 3 C0.64 3 3.28 3 6 3 C6 3.33 6 3.66 6 4 C3.77149723 4.33774332 1.54216533 4.6700187 -0.6875 5 C-2.54955078 5.2784375 -2.54955078 5.2784375 -4.44921875 5.5625 C-7.35886371 5.92100411 -10.07700022 6.08942256 -13 6 C-13 5.01 -13 4.02 -13 3 C-4.57142857 -0.42857143 -4.57142857 -0.42857143 0 0 Z " fill="#222535" transform="translate(265,185)"/>
<path d="M0 0 C-3.92606707 4.00304878 -3.92606707 4.00304878 -7 5 C-9.7377206 4.77559667 -12.30583598 4.45985731 -15 4 C-16.33286961 3.80923147 -17.66617582 3.62147575 -19 3.4375 C-19.99 3.293125 -20.98 3.14875 -22 3 C-22 2.67 -22 2.34 -22 2 C-14.58851545 0.71702277 -7.52719602 -0.25515919 0 0 Z " fill="#4B4F5B" transform="translate(268,225)"/>
<path d="M0 0 C1.32 0.33 2.64 0.66 4 1 C4 3.97 4 6.94 4 10 C2.00045254 10.04254356 -0.00041636 10.04080783 -2 10 C-3 9 -3 9 -3.0625 6.4375 C-3.041875 5.633125 -3.02125 4.82875 -3 4 C-2.34 4.66 -1.68 5.32 -1 6 C-1.0309375 4.7934375 -1.0309375 4.7934375 -1.0625 3.5625 C-1 1 -1 1 0 0 Z " fill="#3B4065" transform="translate(281,384)"/>
<path d="M0 0 C5.63808487 -0.22552339 9.94673026 0.47336513 15 3 C14.625 5.4375 14.625 5.4375 14 8 C12 9 12 9 8.875 8.0625 C7.92625 7.711875 6.9775 7.36125 6 7 C6.66 6.67 7.32 6.34 8 6 C8 4.68 8 3.36 8 2 C5.36 1.67 2.72 1.34 0 1 C0 0.67 0 0.34 0 0 Z " fill="#3D4264" transform="translate(244,359)"/>
<path d="M0 0 C0.99773437 0.02320313 1.99546875 0.04640625 3.0234375 0.0703125 C4.52777344 0.09738281 4.52777344 0.09738281 6.0625 0.125 C6.83335937 0.14820313 7.60421875 0.17140625 8.3984375 0.1953125 C9.5234375 3.9453125 9.5234375 3.9453125 8.3984375 6.1953125 C6.0884375 6.1953125 3.7784375 6.1953125 1.3984375 6.1953125 C1.7284375 5.2053125 2.0584375 4.2153125 2.3984375 3.1953125 C0.0884375 2.8653125 -2.2215625 2.5353125 -4.6015625 2.1953125 C-2.6015625 0.1953125 -2.6015625 0.1953125 0 0 Z " fill="#323659" transform="translate(317.6015625,346.8046875)"/>
<path d="M0 0 C1.09658936 3.28976808 0.79953138 4.71303767 0 8 C-3.3 8 -6.6 8 -10 8 C-10 5 -10 5 -8 3 C-6 2.66666667 -4 2.33333333 -2 2 C-1.34 1.34 -0.68 0.68 0 0 Z " fill="#39ABB7" transform="translate(182,309)"/>
<path d="M0 0 C0.99 0 1.98 0 3 0 C3 0.66 3 1.32 3 2 C3.66 2 4.32 2 5 2 C4.67 5.3 4.34 8.6 4 12 C3.01 11.67 2.02 11.34 1 11 C1 10.34 1 9.68 1 9 C0.34 9 -0.32 9 -1 9 C-0.67 6.03 -0.34 3.06 0 0 Z " fill="#131A50" transform="translate(189,356)"/>
<path d="M0 0 C1.65 0.33 3.3 0.66 5 1 C5.66 4.96 6.32 8.92 7 13 C5.68 12.67 4.36 12.34 3 12 C1.875 7.25 1.875 7.25 3 5 C1.68 4.67 0.36 4.34 -1 4 C-0.67 2.68 -0.34 1.36 0 0 Z " fill="#101546" transform="translate(197,352)"/>
<path d="M0 0 C2.86724686 0.57344937 3.8614515 0.8614515 6 3 C6.125 6.125 6.125 6.125 6 9 C3.36 8.01 0.72 7.02 -2 6 C-1 2 -1 2 0 0 Z " fill="#282B53" transform="translate(235,384)"/>
<path d="M0 0 C1.50433594 0.01353516 1.50433594 0.01353516 3.0390625 0.02734375 C3.80992187 0.03894531 4.58078125 0.05054688 5.375 0.0625 C3.0625 2.125 3.0625 2.125 0.375 4.0625 C-0.615 3.7325 -1.605 3.4025 -2.625 3.0625 C-3.945 4.3825 -5.265 5.7025 -6.625 7.0625 C-7.285 6.4025 -7.945 5.7425 -8.625 5.0625 C-8.375 3 -8.375 3 -7.625 1.0625 C-4.98041621 -0.25979189 -2.94738699 -0.03427194 0 0 Z " fill="#29507B" transform="translate(325.625,178.9375)"/>
<path d="M0 0 C2 1 2 1 3.0625 3.8125 C3.76601287 6.20444376 4.43384223 8.57360958 5 11 C5.226875 11.70125 5.45375 12.4025 5.6875 13.125 C5.790625 13.74375 5.89375 14.3625 6 15 C5.34 15.66 4.68 16.32 4 17 C3.12957757 15.11157486 2.27924526 13.21388098 1.4375 11.3125 C0.96183594 10.25675781 0.48617187 9.20101562 -0.00390625 8.11328125 C-1.05322011 4.83366107 -1.00418265 3.24104461 0 0 Z " fill="#3B4059" transform="translate(246,155)"/>
<path d="M0 0 C2 2 4 4 6 6 C5.67 6.5775 5.34 7.155 5 7.75 C3.72924102 10.19883862 3.72924102 10.19883862 4 14 C0.84297684 10.09130466 -2 6.1385061 -2 1 C-1.34 0.67 -0.68 0.34 0 0 Z " fill="#404464" transform="translate(220,97)"/>
<path d="M0 0 C2.52631142 3.12781414 4.42373366 6.29577411 6 10 C5.67 10.99 5.34 11.98 5 13 C3.0625 12.3125 3.0625 12.3125 1 11 C0.25 8.375 0.25 8.375 0 6 C-0.66 6 -1.32 6 -2 6 C-1.49396008 3.83125748 -1.00016187 2.00032373 0 0 Z " fill="#5B9AAA" transform="translate(328,242)"/>
<path d="M0 0 C0 0.99 0 1.98 0 3 C-2.98212913 4.49106457 -5.71609658 4.11941467 -9 4 C-9.33 3.67 -9.66 3.34 -10 3 C-10.66 2.67 -11.32 2.34 -12 2 C-8.24587786 -1.75412214 -4.98458941 -1.01957511 0 0 Z " fill="#162258" transform="translate(228,233)"/>
<path d="M0 0 C1.93742341 -0.02703381 3.87495479 -0.04641125 5.8125 -0.0625 C6.89144531 -0.07410156 7.97039062 -0.08570313 9.08203125 -0.09765625 C12 0 12 0 15 1 C14.67 1.99 14.34 2.98 14 4 C10.625 4.625 10.625 4.625 7 5 C6.34 4.34 5.68 3.68 5 3 C5 2.67 5 2.34 5 2 C3.35 1.67 1.7 1.34 0 1 C0 0.67 0 0.34 0 0 Z " fill="#2C3448" transform="translate(241,228)"/>
<path d="M0 0 C1.31538327 4.15771494 0.34433068 6.8879297 -1 11 C-1.66 11 -2.32 11 -3 11 C-2.67 12.65 -2.34 14.3 -2 16 C-3.65 16.66 -5.3 17.32 -7 18 C-5.06375702 11.79522136 -2.74390859 5.89174281 0 0 Z " fill="#4F5376" transform="translate(188,356)"/>
<path d="M0 0 C3 1 3 1 4.16796875 2.77734375 C4.50441406 3.49019531 4.84085937 4.20304687 5.1875 4.9375 C5.70376953 6.00291016 5.70376953 6.00291016 6.23046875 7.08984375 C7 9 7 9 7 11 C5.1875 10.875 5.1875 10.875 3 10 C0.71094011 6.32115375 0 4.38448044 0 0 Z M1 10 C1.99 10.495 1.99 10.495 3 11 C2.01 11.495 2.01 11.495 1 12 C1 11.34 1 10.68 1 10 Z " fill="#4DA9AF" transform="translate(347,284)"/>
<path d="M0 0 C3.19902639 -0.08886184 5.92677456 0.08941469 9 1 C7.7508258 4.45925163 6.32472205 7.14693203 4 10 C3.34 9.67 2.68 9.34 2 9 C2.33 8.01 2.66 7.02 3 6 C2.34 5.67 1.68 5.34 1 5 C1.66 3.68 2.32 2.36 3 1 C2.01 1.33 1.02 1.66 0 2 C0 1.34 0 0.68 0 0 Z " fill="#051B48" transform="translate(304,186)"/>
<path d="M0 0 C3.60891629 2.40594419 4.0658241 4.02075354 5.625 8 C6.05039063 9.0725 6.47578125 10.145 6.9140625 11.25 C7.27242187 12.1575 7.63078125 13.065 8 14 C8.33 14.66 8.66 15.32 9 16 C7.68 16.33 6.36 16.66 5 17 C5 16.01 5 15.02 5 14 C4.36959957 12.64914193 3.69748583 11.31747324 3 10 C2.33333333 8.33333333 1.66666667 6.66666667 1 5 C0.34786461 3.65949948 -0.31379969 2.32338632 -1 1 C-0.67 0.67 -0.34 0.34 0 0 Z " fill="#26263B" transform="translate(221,118)"/>
<path d="M0 0 C1.98 0.99 3.96 1.98 6 3 C6 4.65 6 6.3 6 8 C6.99 8.33 7.98 8.66 9 9 C7.68 9.33 6.36 9.66 5 10 C4.67 9.01 4.34 8.02 4 7 C0.99152582 5.77479736 0.99152582 5.77479736 -2 5 C-1.125 1.125 -1.125 1.125 0 0 Z " fill="#11174B" transform="translate(246,372)"/>
<path d="M0 0 C0.33 1.32 0.66 2.64 1 4 C1.66 4 2.32 4 3 4 C3 4.66 3 5.32 3 6 C2.34 6 1.68 6 1 6 C0.938125 6.721875 0.87625 7.44375 0.8125 8.1875 C-0.24456647 11.84657625 -2.20550071 13.49211602 -5 16 C-3.41078475 10.63904723 -1.81027062 5.29156027 0 0 Z " fill="#495274" transform="translate(188,168)"/>
<path d="M0 0 C0.625 1.8125 0.625 1.8125 1 4 C-1 7 -1 7 -3.4375 7.5 C-4.283125 7.665 -5.12875 7.83 -6 8 C-7.02019573 8.9793879 -8.02149805 9.97895449 -9 11 C-11.1875 11.6875 -11.1875 11.6875 -13 12 C-8.87675353 7.74790208 -4.48717034 3.86364295 0 0 Z " fill="#5C97A5" transform="translate(316,231)"/>
<path d="M0 0 C0.99 0 1.98 0 3 0 C3.66 1.65 4.32 3.3 5 5 C2.36 6.65 -0.28 8.3 -3 10 C-2.01 6.7 -1.02 3.4 0 0 Z " fill="#373848" transform="translate(213,104)"/>
<path d="M0 0 C0.66 0.33 1.32 0.66 2 1 C2 2.32 2 3.64 2 5 C-4.52307692 4.38461538 -4.52307692 4.38461538 -6.9375 2.4375 C-7.288125 1.963125 -7.63875 1.48875 -8 1 C-5.26094655 -0.36952673 -3.02912668 -0.12621361 0 0 Z " fill="#111946" transform="translate(250,360)"/>
<path d="M0 0 C-0.66 0 -1.32 0 -2 0 C-2 0.66 -2 1.32 -2 2 C3.61 2 9.22 2 15 2 C14.67 2.66 14.34 3.32 14 4 C6.74 3.67 -0.52 3.34 -8 3 C-8 2.34 -8 1.68 -8 1 C-3.375 -1.125 -3.375 -1.125 0 0 Z " fill="#71A9B1" transform="translate(277,259)"/>
<path d="M0 0 C-0.33 1.65 -0.66 3.3 -1 5 C-2.36125 4.938125 -2.36125 4.938125 -3.75 4.875 C-6.8782046 4.99531556 -8.38614006 5.3914708 -11 7 C-11.33 6.01 -11.66 5.02 -12 4 C-4.71428571 -0.57142857 -4.71428571 -0.57142857 0 0 Z " fill="#38788F" transform="translate(264,233)"/>
<path d="M0 0 C0.8723412 2.99480917 1.10829766 5.63575911 1.0625 8.75 C1.05347656 9.54921875 1.04445312 10.3484375 1.03515625 11.171875 C1.01775391 12.07679688 1.01775391 12.07679688 1 13 C-0.65 13 -2.3 13 -4 13 C-3.52140759 11.39566191 -3.04210442 9.79153584 -2.5625 8.1875 C-2.29566406 7.29417969 -2.02882812 6.40085937 -1.75390625 5.48046875 C-1.19612127 3.64526945 -0.60655425 1.81966274 0 0 Z " fill="#64BDBF" transform="translate(135,304)"/>
<path d="M0 0 C0.7734375 0.2165625 0.7734375 0.2165625 1.5625 0.4375 C4.68509571 1.15809901 7.82550692 1.57266439 11 2 C9.66666667 2.66666667 8.33333333 3.33333333 7 4 C5.453125 4.804375 5.453125 4.804375 3.875 5.625 C1 7 1 7 -1 7 C-0.67 4.69 -0.34 2.38 0 0 Z " fill="#5A657A" transform="translate(156,251)"/>
<path d="M0 0 C2.97 0.495 2.97 0.495 6 1 C5.67 1.99 5.34 2.98 5 4 C4.34 4 3.68 4 3 4 C4.36983503 7.16115776 4.9890638 7.9927092 8 10 C6.02 10 4.04 10 2 10 C1.855625 8.906875 1.71125 7.81375 1.5625 6.6875 C1.11711896 3.06877013 1.11711896 3.06877013 0 0 Z " fill="#121B4A" transform="translate(183,235)"/>
<path d="M0 0 C0.66 0 1.32 0 2 0 C3.125 5.75 3.125 5.75 2 8 C-0.5625 8.625 -0.5625 8.625 -3 9 C-2.25 2.25 -2.25 2.25 0 0 Z " fill="#39728E" transform="translate(324,206)"/>
<path d="M0 0 C1.32 0.66 2.64 1.32 4 2 C4 5.96 4 9.92 4 14 C1.327664 10.43688534 0.22736029 8.15414253 -1 4 C-0.34 4 0.32 4 1 4 C0.67 2.68 0.34 1.36 0 0 Z M4 1 C6 2 6 2 6 2 Z " fill="#232850" transform="translate(234,128)"/>
<path d="M0 0 C2.41796875 0.5859375 2.41796875 0.5859375 5 2 C5.92578125 5.0390625 5.92578125 5.0390625 6.3125 8.625 C6.45300781 9.81351563 6.59351563 11.00203125 6.73828125 12.2265625 C6.82464844 13.14179688 6.91101563 14.05703125 7 15 C3.12252569 13.06126284 2.16521297 6.48694349 0.8125 2.5 C0.4103125 1.2625 0.4103125 1.2625 0 0 Z " fill="#444960" transform="translate(226,115)"/>
<path d="M0 0 C-0.99 0 -1.98 0 -3 0 C-3 0.66 -3 1.32 -3 2 C-7.17737474 3.59138085 -10.53160785 4.21278058 -15 4 C-12.59594933 1.01897717 -11.29438525 0.06833943 -7.5 -0.8125 C-4.60071148 -0.96781903 -2.68958436 -0.96825037 0 0 Z " fill="#2D334B" transform="translate(182,248)"/>
<path d="M0 0 C2.62386487 3.06117568 3 3.73173127 3 8 C1.02 8 -0.96 8 -3 8 C-2.25 2.25 -2.25 2.25 0 0 Z " fill="#0F1443" transform="translate(239,364)"/>
<path d="M0 0 C2.64 0 5.28 0 8 0 C8 1.65 8 3.3 8 5 C5.36 4.34 2.72 3.68 0 3 C0 2.01 0 1.02 0 0 Z " fill="#171C43" transform="translate(317,360)"/>
<path d="M0 0 C3.125 -0.1875 3.125 -0.1875 6 0 C2.20182235 3.22269618 -1.57391854 5.74520378 -6 8 C-6.66 7.67 -7.32 7.34 -8 7 C-7.67 6.01 -7.34 5.02 -7 4 C-5.824375 3.8453125 -5.824375 3.8453125 -4.625 3.6875 C-1.66954819 3.22404978 -1.66954819 3.22404978 0 0 Z " fill="#78BAC2" transform="translate(212,283)"/>
<path d="M0 0 C2.97 0.99 5.94 1.98 9 3 C5.89448334 6.10551666 4.10801767 6.81323934 0 8 C0.33 7.01 0.66 6.02 1 5 C2.32 5 3.64 5 5 5 C5 4.34 5 3.68 5 3 C3.68 3.33 2.36 3.66 1 4 C0.67 2.68 0.34 1.36 0 0 Z " fill="#5CABB6" transform="translate(224,272)"/>
<path d="M0 0 C2.33697029 2.33697029 3.27094054 4.49097899 4.625 7.5 C5.29402344 8.96953125 5.29402344 8.96953125 5.9765625 10.46875 C7 13 7 13 7 15 C3.52860221 13.8428674 2.84198076 13.0788151 1 10 C0.48828125 7.421875 0.48828125 7.421875 0.3125 4.75 C0.24675781 3.85796875 0.18101562 2.9659375 0.11328125 2.046875 C0.07589844 1.37140625 0.03851563 0.6959375 0 0 Z " fill="#525472" transform="translate(202,353)"/>
<path d="M0 0 C0.66 0.33 1.32 0.66 2 1 C2 2.32 2 3.64 2 5 C0.68 5.33 -0.64 5.66 -2 6 C-2 7.65 -2 9.3 -2 11 C-3.76462683 7.91190305 -4 6.76687864 -4 3 C-2 1.25 -2 1.25 0 0 Z " fill="#34A6B0" transform="translate(188,296)"/>
<path d="M0 0 C0.33 0.99 0.66 1.98 1 3 C1.99 3.33 2.98 3.66 4 4 C2.35 5.65 0.7 7.3 -1 9 C-1.66 8.67 -2.32 8.34 -3 8 C-2.01 5.36 -1.02 2.72 0 0 Z M4 1 C7 2 7 2 7 2 Z " fill="#343D62" transform="translate(160,242)"/>
<path d="M0 0 C1.2065625 0.0309375 1.2065625 0.0309375 2.4375 0.0625 C-0.58522532 3.31774265 -3.81968301 5.68070737 -7.5625 8.0625 C-8.2225 7.7325 -8.8825 7.4025 -9.5625 7.0625 C-8.53108962 4.48397406 -7.94768655 3.28427407 -5.5 1.875 C-4.860625 1.606875 -4.22125 1.33875 -3.5625 1.0625 C-2.5625 0.0625 -2.5625 0.0625 0 0 Z " fill="#5F92A5" transform="translate(303.5625,235.9375)"/>
<path d="M0 0 C0.99 0.33 1.98 0.66 3 1 C2.67 3.31 2.34 5.62 2 8 C1.34 8 0.68 8 0 8 C0 7.34 0 6.68 0 6 C-0.66 6 -1.32 6 -2 6 C-2 4.35 -2 2.7 -2 1 C-1.34 0.67 -0.68 0.34 0 0 Z " fill="#2F6082" transform="translate(330,193)"/>
<path d="M0 0 C0.66 0.33 1.32 0.66 2 1 C1.67 4.3 1.34 7.6 1 11 C0.01 11 -0.98 11 -2 11 C-1.85957123 9.35369672 -1.71250671 7.70795821 -1.5625 6.0625 C-1.48128906 5.14597656 -1.40007812 4.22945313 -1.31640625 3.28515625 C-1 1 -1 1 0 0 Z " fill="#242B51" transform="translate(206,123)"/>
<path d="M0 0 C3.94876098 0.56410871 6.75634176 1.65735794 10 4 C10.33 4.99 10.66 5.98 11 7 C10.01 7 9.02 7 8 7 C7.67 5.68 7.34 4.36 7 3 C6.34 3 5.68 3 5 3 C5.33 4.32 5.66 5.64 6 7 C5.34 7 4.68 7 4 7 C3.67 6.01 3.34 5.02 3 4 C3.33 3.34 3.66 2.68 4 2 C2.68 1.67 1.36 1.34 0 1 C0 0.67 0 0.34 0 0 Z " fill="#5C5E7C" transform="translate(248,373)"/>
<path d="M0 0 C1.65 0 3.3 0 5 0 C5 2.31 5 4.62 5 7 C3.0625 6.3125 3.0625 6.3125 1 5 C0.25 2.375 0.25 2.375 0 0 Z " fill="#171C4A" transform="translate(279,360)"/>
<path d="M0 0 C-0.33 0.66 -0.66 1.32 -1 2 C-8.75 2.125 -8.75 2.125 -11 1 C-11.33 1.66 -11.66 2.32 -12 3 C-12 2.01 -12 1.02 -12 0 C-10.56666979 -0.39063507 -9.12807321 -0.76198474 -7.6875 -1.125 C-6.88699219 -1.33382812 -6.08648437 -1.54265625 -5.26171875 -1.7578125 C-3 -2 -3 -2 0 0 Z " fill="#181F47" transform="translate(169,251)"/>
<path d="M0 0 C0 0.33 0 0.66 0 1 C-2.64 1 -5.28 1 -8 1 C-8 1.66 -8 2.32 -8 3 C-11.3 2.67 -14.6 2.34 -18 2 C-18 1.67 -18 1.34 -18 1 C-12.03325384 -0.32594359 -6.07416385 -0.0884587 0 0 Z " fill="#444C5D" transform="translate(239,229)"/>
<path d="M0 0 C0.33 0 0.66 0 1 0 C1 1.98 1 3.96 1 6 C1.66 6 2.32 6 3 6 C3 6.66 3 7.32 3 8 C1.02 8 -0.96 8 -3 8 C-2.45276317 4.62537285 -1.9451 2.91765 0 0 Z " fill="#33374C" transform="translate(167,226)"/>
<path d="M0 0 C0 0.33 0 0.66 0 1 C-2.06172613 1.33808686 -4.1244203 1.67027361 -6.1875 2 C-7.91033203 2.2784375 -7.91033203 2.2784375 -9.66796875 2.5625 C-12.50415393 2.93489477 -15.14719564 3.08596021 -18 3 C-17 1 -17 1 -14.625 -0.1875 C-9.61084132 -1.31136315 -5.05552681 -0.66567435 0 0 Z " fill="#65687A" transform="translate(279,177)"/>
<path d="M0 0 C1.32 0 2.64 0 4 0 C4.99 3.3 5.98 6.6 7 10 C4 9 4 9 2.83203125 6.93359375 C2.49558594 6.10988281 2.15914062 5.28617188 1.8125 4.4375 C1.46832031 3.61121094 1.12414062 2.78492188 0.76953125 1.93359375 C0.51558594 1.29550781 0.26164063 0.65742188 0 0 Z " fill="#030213" transform="translate(227,134)"/>
<path d="M0 0 C2.475 0.99 2.475 0.99 5 2 C1.61416198 5.13107836 -0.71109462 5.33550778 -5.25 5.1875 C-6.86648437 5.14689453 -6.86648437 5.14689453 -8.515625 5.10546875 C-9.74539062 5.05326172 -9.74539062 5.05326172 -11 5 C-11 4.67 -11 4.34 -11 4 C-10.37351563 3.96261719 -9.74703125 3.92523438 -9.1015625 3.88671875 C-8.28429687 3.82097656 -7.46703125 3.75523437 -6.625 3.6875 C-5.81289062 3.62949219 -5.00078125 3.57148438 -4.1640625 3.51171875 C-1.62078662 3.17009472 -1.62078662 3.17009472 0 0 Z " fill="#4A4E73" transform="translate(252,389)"/>
<path d="M0 0 C2 1.5 2 1.5 4 4 C4.35800135 6.75871627 4.18660165 9.20097524 4 12 C1.03947516 8.63576723 0.07710178 5.30840713 -1 1 C-0.67 0.67 -0.34 0.34 0 0 Z " fill="#60ACB5" transform="translate(306,290)"/>
<path d="M0 0 C0.33 0.66 0.66 1.32 1 2 C0.67 2.99 0.34 3.98 0 5 C-0.66 5 -1.32 5 -2 5 C-2 5.66 -2 6.32 -2 7 C-3.65 6.67 -5.3 6.34 -7 6 C-7 5.34 -7 4.68 -7 4 C-4.69 2.68 -2.38 1.36 0 0 Z " fill="#212A50" transform="translate(219,234)"/>
<path d="M0 0 C0.5625 1.9375 0.5625 1.9375 1 4 C0 5 0 5 -2.94140625 5.09765625 C-4.73384766 5.08025391 -4.73384766 5.08025391 -6.5625 5.0625 C-8.35880859 5.04896484 -8.35880859 5.04896484 -10.19140625 5.03515625 C-11.11824219 5.02355469 -12.04507813 5.01195312 -13 5 C-13 4.67 -13 4.34 -13 4 C-8.9472484 3.01751476 -5.16138263 2.91840426 -1 3 C-0.67 2.01 -0.34 1.02 0 0 Z " fill="#141A30" transform="translate(217,222)"/>
<path d="M0 0 C1.98 0.495 1.98 0.495 4 1 C3.7452486 2.31571603 3.47065859 3.62760376 3.1875 4.9375 C3.03667969 5.66839844 2.88585937 6.39929688 2.73046875 7.15234375 C2.48941406 7.76207031 2.24835938 8.37179688 2 9 C1.01 9.33 0.02 9.66 -1 10 C-0.67 6.7 -0.34 3.4 0 0 Z " fill="#081530" transform="translate(298,202)"/>
<path d="M0 0 C-0.11362262 1.4800841 -0.24122908 2.95910074 -0.375 4.4375 C-0.44460937 5.26121094 -0.51421875 6.08492187 -0.5859375 6.93359375 C-0.72257813 7.61550781 -0.85921875 8.29742187 -1 9 C-1.99 9.495 -1.99 9.495 -3 10 C-3.89130413 7.3260876 -4.47731534 4.76276177 -5 2 C-1.125 0 -1.125 0 0 0 Z " fill="#31395B" transform="translate(231,185)"/>
<path d="M0 0 C1.98 0 3.96 0 6 0 C6 0.66 6 1.32 6 2 C7.32 2.33 8.64 2.66 10 3 C9.34 4.32 8.68 5.64 8 7 C7.34 7 6.68 7 6 7 C6 5.68 6 4.36 6 3 C5.01 3 4.02 3 3 3 C3 2.34 3 1.68 3 1 C2.01 0.67 1.02 0.34 0 0 Z " fill="#214772" transform="translate(332,180)"/>
<path d="M0 0 C0.66 0.33 1.32 0.66 2 1 C1.25 3.9375 1.25 3.9375 0 7 C-2.125 7.875 -2.125 7.875 -4 8 C-4.33 7.01 -4.66 6.02 -5 5 C-3.35 3.35 -1.7 1.7 0 0 Z " fill="#121742" transform="translate(181,384)"/>
<path d="M0 0 C3 1 3 1 4.16796875 3.21484375 C4.50441406 4.11332031 4.84085937 5.01179688 5.1875 5.9375 C5.70376953 7.28134766 5.70376953 7.28134766 6.23046875 8.65234375 C7 11 7 11 7 13 C6.34 13 5.68 13 5 13 C4.16209211 11.21046815 3.32980604 9.41830305 2.5 7.625 C1.80390625 6.12839844 1.80390625 6.12839844 1.09375 4.6015625 C0 2 0 2 0 0 Z " fill="#70B8BA" transform="translate(312,306)"/>
<path d="M0 0 C0.66 0.33 1.32 0.66 2 1 C1.34 2.32 0.68 3.64 0 5 C0.33 5.33 0.66 5.66 1 6 C0.67 6.66 0.34 7.32 0 8 C-0.99 8 -1.98 8 -3 8 C-3.33 8.99 -3.66 9.98 -4 11 C-5.24546405 8.50907189 -4.7767578 7.58919267 -4 5 C-3.34 5 -2.68 5 -2 5 C-1.34 3.35 -0.68 1.7 0 0 Z " fill="#12194C" transform="translate(198,150)"/>
<path d="M0 0 C0.33 0.99 0.66 1.98 1 3 C3.97 3.495 3.97 3.495 7 4 C7.33 4.99 7.66 5.98 8 7 C6.56068883 6.54738642 5.12361001 6.08767021 3.6875 5.625 C2.88699219 5.36976563 2.08648437 5.11453125 1.26171875 4.8515625 C-1 4 -1 4 -4 2 C-2.68 2 -1.36 2 0 2 C0 1.34 0 0.68 0 0 Z " fill="#444970" transform="translate(243,374)"/>
<path d="M0 0 C0 3.93154432 -1.25327015 6.5065403 -3 10 C-3.99 10.33 -4.98 10.66 -6 11 C-4.74194623 6.49197399 -3.09592835 3.5087188 0 0 Z " fill="#70B8C0" transform="translate(147,282)"/>
<path d="M0 0 C0.66 0.66 1.32 1.32 2 2 C0.625 3.5 0.625 3.5 -1 5 C-1.66 5 -2.32 5 -3 5 C-3.66 5.66 -4.32 6.32 -5 7 C-5.66 6.67 -6.32 6.34 -7 6 C-6 3 -6 3 -2.9375 1.3125 C-1.968125 0.879375 -0.99875 0.44625 0 0 Z " fill="#398094" transform="translate(306,241)"/>
<path d="M0 0 C2.96052484 3.36423277 3.92289822 6.69159287 5 11 C4.34 11 3.68 11 3 11 C3 10.01 3 9.02 3 8 C2.01 7.67 1.02 7.34 0 7 C-0.38133299 5.0085944 -0.71325582 3.00720923 -1 1 C-0.67 0.67 -0.34 0.34 0 0 Z " fill="#545876" transform="translate(282,139)"/>
<path d="M0 0 C0.33 0.66 0.66 1.32 1 2 C0.67 2.66 0.34 3.32 0 4 C2.99332739 3.0022242 3.94766315 2.2477975 6 0 C6.33 1.65 6.66 3.3 7 5 C4.36 5 1.72 5 -1 5 C-1.33 3.68 -1.66 2.36 -2 1 C-1.34 0.67 -0.68 0.34 0 0 Z " fill="#4C506D" transform="translate(213,389)"/>
<path d="M0 0 C0.66 0.33 1.32 0.66 2 1 C2 1.99 2 2.98 2 4 C-0.3125 5.75 -0.3125 5.75 -3 7 C-3.99 6.67 -4.98 6.34 -6 6 C-4 4 -2 2 0 0 Z " fill="#5AABB8" transform="translate(154,275)"/>
<path d="M0 0 C0 0.99 0 1.98 0 3 C-3.3 3 -6.6 3 -10 3 C-10 2.34 -10 1.68 -10 1 C-6.56484998 0.37542727 -3.50935186 0 0 0 Z " fill="#454860" transform="translate(183,235)"/>
<path d="M0 0 C1.29409592 0.45142881 2.58521059 0.91141021 3.875 1.375 C4.95394531 1.75785156 4.95394531 1.75785156 6.0546875 2.1484375 C8 3 8 3 10 5 C7.0845524 5 4.65845519 4.59136731 1.8125 4 C0.91144531 3.814375 0.01039063 3.62875 -0.91796875 3.4375 C-1.60503906 3.293125 -2.29210937 3.14875 -3 3 C-2.01 2.67 -1.02 2.34 0 2 C0 1.34 0 0.68 0 0 Z " fill="#33374E" transform="translate(302,182)"/>
<path d="M0 0 C1.875 0.5625 1.875 0.5625 4 2 C5.25 5.625 5.25 5.625 6 9 C3 8 3 8 2.05078125 6.15234375 C1.80714844 5.42144531 1.56351563 4.69054687 1.3125 3.9375 C1.06113281 3.20402344 0.80976563 2.47054687 0.55078125 1.71484375 C0.36902344 1.14894531 0.18726563 0.58304688 0 0 Z " fill="#464963" transform="translate(251,173)"/>
<path d="M0 0 C1.9375 0.375 1.9375 0.375 4 1 C5.38125018 3.76250036 5.19079306 5.94731099 5 9 C4.34 9.66 3.68 10.32 3 11 C2.87625 9.9275 2.7525 8.855 2.625 7.75 C2.10356064 4.62136385 1.59911746 2.66519576 0 0 Z " fill="#0A0F3F" transform="translate(211,116)"/>
<path d="M0 0 C2.475 0.495 2.475 0.495 5 1 C4.67 2.65 4.34 4.3 4 6 C2.68 5.67 1.36 5.34 0 5 C0 3.35 0 1.7 0 0 Z " fill="#131647" transform="translate(280,347)"/>
<path d="M0 0 C2.64 0 5.28 0 8 0 C8.66 1.65 9.32 3.3 10 5 C9.01 4.67 8.02 4.34 7 4 C6.67 3.34 6.34 2.68 6 2 C3.61435923 2.57584432 1.33317216 3.22227595 -1 4 C-0.67 2.68 -0.34 1.36 0 0 Z " fill="#4A4D67" transform="translate(192,348)"/>
<path d="M0 0 C0.99 0.33 1.98 0.66 3 1 C4.89212737 1.22179785 6.78884472 1.40614015 8.6875 1.5625 C9.68136719 1.64628906 10.67523438 1.73007812 11.69921875 1.81640625 C12.83810547 1.90728516 12.83810547 1.90728516 14 2 C14 2.33 14 2.66 14 3 C8.72 3 3.44 3 -2 3 C-2 2.34 -2 1.68 -2 1 C-1.34 0.67 -0.68 0.34 0 0 Z " fill="#338593" transform="translate(277,258)"/>
<path d="M0 0 C-1.45537568 0.83848804 -2.91440373 1.67063934 -4.375 2.5 C-5.59316406 3.19609375 -5.59316406 3.19609375 -6.8359375 3.90625 C-9 5 -9 5 -11 5 C-10 2 -10 2 -8 0 C-4.9345311 -1.12400527 -3.09319508 -0.86065888 0 0 Z " fill="#659DAE" transform="translate(293,246)"/>
<path d="M0 0 C2.32472205 2.85306797 3.7508258 5.54074837 5 9 C2.03 8.505 2.03 8.505 -1 8 C-0.67 5.36 -0.34 2.72 0 0 Z " fill="#548DA0" transform="translate(323,233)"/>
<path d="M0 0 C3.63 0 7.26 0 11 0 C7.52630934 1.73684533 5.92380063 2.30084112 2.25 2.625 C1.45078125 2.69976562 0.6515625 2.77453125 -0.171875 2.8515625 C-0.77515625 2.90054688 -1.3784375 2.94953125 -2 3 C-1.34 2.67 -0.68 2.34 0 2 C0 1.34 0 0.68 0 0 Z " fill="#3A4154" transform="translate(219,237)"/>
<path d="M0 0 C0.66 0.33 1.32 0.66 2 1 C1.75 4.375 1.75 4.375 1 8 C-0.98 8.99 -0.98 8.99 -3 10 C-2.01 6.7 -1.02 3.4 0 0 Z " fill="#454B6A" transform="translate(182,184)"/>
<path d="M0 0 C1.32 1.65 2.64 3.3 4 5 C2.625 6.5 2.625 6.5 1 8 C0.34 8 -0.32 8 -1 8 C-1.125 2.25 -1.125 2.25 0 0 Z " fill="#232A51" transform="translate(180,375)"/>
<path d="M0 0 C1.98 0 3.96 0 6 0 C6.33 0.99 6.66 1.98 7 3 C2.25 4.125 2.25 4.125 0 3 C0 2.01 0 1.02 0 0 Z " fill="#0E1446" transform="translate(303,361)"/>
<path d="M0 0 C0 0.66 0 1.32 0 2 C-0.66 2 -1.32 2 -2 2 C-2.33 2.66 -2.66 3.32 -3 4 C-4.98 4 -6.96 4 -9 4 C-9 3.34 -9 2.68 -9 2 C-5.86501708 0.14223235 -3.62528568 -0.20140476 0 0 Z " fill="#398191" transform="translate(225,247)"/>
<path d="M0 0 C0 0.66 0 1.32 0 2 C-3.67410785 3.17571451 -7.16929183 3.07366746 -11 3 C-10.67 2.34 -10.34 1.68 -10 1 C-6.56187949 0.23597322 -3.53471921 0 0 0 Z " fill="#202639" transform="translate(195,244)"/>
<path d="M0 0 C0.33 0.99 0.66 1.98 1 3 C-0.1875 4.5625 -0.1875 4.5625 -2 6 C-4.6875 5.6875 -4.6875 5.6875 -7 5 C-2.25 1.125 -2.25 1.125 0 0 Z " fill="#4C8297" transform="translate(288,219)"/>
<path d="M0 0 C2 4 2 4 1.125 7.25 C0.75375 8.1575 0.3825 9.065 0 10 C-0.99 10 -1.98 10 -3 10 C-2.01 6.7 -1.02 3.4 0 0 Z " fill="#485169" transform="translate(173,207)"/>
<path d="M0 0 C0.99 0.99 1.98 1.98 3 3 C2.34 4.98 1.68 6.96 1 9 C0.34 9 -0.32 9 -1 9 C-1.09765625 2.84765625 -1.09765625 2.84765625 -1 1 C-0.67 0.67 -0.34 0.34 0 0 Z " fill="#191E38" transform="translate(233,174)"/>
<path d="M0 0 C4.8 3.44615385 4.8 3.44615385 5.8125 6.25 C5.874375 6.8275 5.93625 7.405 6 8 C5.01 8.33 4.02 8.66 3 9 C0 3.375 0 3.375 0 0 Z " fill="#030926" transform="translate(234,159)"/>
<path d="M0 0 C0.99 0 1.98 0 3 0 C3.66 1.98 4.32 3.96 5 6 C4.34 6.66 3.68 7.32 3 8 C0.37613513 4.93882432 0 4.26826873 0 0 Z " fill="#040518" transform="translate(236,153)"/>
<path d="M0 0 C0.66 0 1.32 0 2 0 C1.625 2.4375 1.625 2.4375 1 5 C-1 6 -1 6 -4.125 5.0625 C-5.07375 4.711875 -6.0225 4.36125 -7 4 C-7 3.67 -7 3.34 -7 3 C-3.535 2.505 -3.535 2.505 0 2 C0 1.34 0 0.68 0 0 Z " fill="#545773" transform="translate(257,362)"/>
<path d="M0 0 C0.66 0 1.32 0 2 0 C4.15305957 3.85756507 5.39253254 6.55129785 5 11 C2.77174356 8.77174356 2.30760631 7.34238372 1.375 4.375 C1.11460937 3.55773437 0.85421875 2.74046875 0.5859375 1.8984375 C0.39257812 1.27195312 0.19921875 0.64546875 0 0 Z " fill="#6BAFB7" transform="translate(297,274)"/>
<path d="M0 0 C1.32 0.33 2.64 0.66 4 1 C1.525 4.465 1.525 4.465 -1 8 C-1.66 7.67 -2.32 7.34 -3 7 C-2.01 4.69 -1.02 2.38 0 0 Z " fill="#6090A4" transform="translate(317,220)"/>
<path d="M0 0 C1 3 1 3 -0.3125 5.6875 C-0.869375 6.450625 -1.42625 7.21375 -2 8 C-2.66 8 -3.32 8 -4 8 C-4.33 7.01 -4.66 6.02 -5 5 C-3.35 3.35 -1.7 1.7 0 0 Z " fill="#55738F" transform="translate(317,181)"/>
<path d="M0 0 C0.33 0 0.66 0 1 0 C1 2.64 1 5.28 1 8 C-0.32 8.33 -1.64 8.66 -3 9 C-2.01 6.03 -1.02 3.06 0 0 Z " fill="#4A4E70" transform="translate(178,379)"/>
<path d="M0 0 C3.875 1.75 3.875 1.75 5 4 C3.35 4.33 1.7 4.66 0 5 C-0.5625 3.0625 -0.5625 3.0625 -1 1 C-0.67 0.67 -0.34 0.34 0 0 Z " fill="#12164C" transform="translate(183,375)"/>
<path d="M0 0 C0.66 0 1.32 0 2 0 C2.93423645 3.01031744 3.04449911 3.86650268 2 7 C1.01 6.67 0.02 6.34 -1 6 C-1.042721 4.33388095 -1.04063832 2.66617115 -1 1 C-0.67 0.67 -0.34 0.34 0 0 Z " fill="#3AA2B5" transform="translate(310,291)"/>
<path d="M0 0 C0.66 0 1.32 0 2 0 C2.99 2.64 3.98 5.28 5 8 C4.01 8 3.02 8 2 8 C-0.1519437 4.77208445 -0.20086443 3.71599191 0 0 Z " fill="#67ABB6" transform="translate(344,276)"/>
<path d="M0 0 C4 0 4 0 7 2 C4.25 3.625 4.25 3.625 1 5 C-1.375 4.1875 -1.375 4.1875 -3 3 C-1.68 3 -0.36 3 1 3 C0.67 2.01 0.34 1.02 0 0 Z " fill="#6AAAB8" transform="translate(256,260)"/>
<path d="M0 0 C0.33 0.99 0.66 1.98 1 3 C-4.53846154 3.36923077 -4.53846154 3.36923077 -6.875 1.5 C-7.24625 1.005 -7.6175 0.51 -8 0 C-5.13822943 -1.43088528 -3.06624227 -0.59991697 0 0 Z " fill="#4498AC" transform="translate(285,257)"/>
<path d="M0 0 C1.98 0.66 3.96 1.32 6 2 C5.67 2.99 5.34 3.98 5 5 C3.02 4.34 1.04 3.68 -1 3 C-0.67 2.01 -0.34 1.02 0 0 Z " fill="#2D7A97" transform="translate(317,234)"/>
<path d="M0 0 C1.31223496 3.93670488 0.24296256 6.12488144 -1 10 C-1.66 10 -2.32 10 -3 10 C-2.49287967 6.28111761 -1.88391785 3.26545761 0 0 Z " fill="#121835" transform="translate(228,190)"/>
<path d="M0 0 C4.95 0.99 4.95 0.99 10 2 C6 4 6 4 2.75 3.125 C1.8425 2.75375 0.935 2.3825 0 2 C0 1.34 0 0.68 0 0 Z " fill="#3D4457" transform="translate(281,190)"/>
<path d="M0 0 C1.32 0 2.64 0 4 0 C4 0.66 4 1.32 4 2 C3.34 2 2.68 2 2 2 C2 2.66 2 3.32 2 4 C1.34 4 0.68 4 0 4 C0 4.99 0 5.98 0 7 C-0.66 7 -1.32 7 -2 7 C-1.125 2.25 -1.125 2.25 0 0 Z " fill="#53708E" transform="translate(336,187)"/>
<path d="M0 0 C0.66 0.33 1.32 0.66 2 1 C2.40729228 3.32156597 2.74438677 5.6568787 3 8 C2.01 8 1.02 8 0 8 C-1.125 2.25 -1.125 2.25 0 0 Z " fill="#2C3150" transform="translate(246,155)"/>
<path d="M0 0 C0.66 0 1.32 0 2 0 C2.625 2.3125 2.625 2.3125 3 5 C2.01 6.485 2.01 6.485 1 8 C-0.42944945 5.64561267 -1.08661261 4.51967567 -0.625 1.75 C-0.41875 1.1725 -0.2125 0.595 0 0 Z " fill="#050720" transform="translate(216,109)"/>
<path d="M0 0 C2.475 0.99 2.475 0.99 5 2 C4.34 3.32 3.68 4.64 3 6 C2.01 6 1.02 6 0 6 C0 4.02 0 2.04 0 0 Z " fill="#0F1645" transform="translate(213,387)"/>
<path d="M0 0 C1.65 0 3.3 0 5 0 C4.67 1.32 4.34 2.64 4 4 C4.66 4.33 5.32 4.66 6 5 C5.01 6.485 5.01 6.485 4 8 C2.66666667 5.33333333 1.33333333 2.66666667 0 0 Z " fill="#636B86" transform="translate(195,357)"/>
<path d="M0 0 C2.61047801 1.305239 2.68066423 2.35826574 3.625 5.0625 C3.88539063 5.79597656 4.14578125 6.52945312 4.4140625 7.28515625 C4.60742188 7.85105469 4.80078125 8.41695313 5 9 C3.68 8.67 2.36 8.34 1 8 C0.67 5.36 0.34 2.72 0 0 Z " fill="#70AEB9" transform="translate(334,255)"/>
<path d="M0 0 C0 0.66 0 1.32 0 2 C-5.41538462 4.21538462 -5.41538462 4.21538462 -8.375 3.125 C-8.91125 2.75375 -9.4475 2.3825 -10 2 C-6.38026598 0.68373308 -3.90432869 0 0 0 Z " fill="#78A8B8" transform="translate(249,238)"/>
<path d="M0 0 C0.99 0.66 1.98 1.32 3 2 C3 2.66 3 3.32 3 4 C2.34 4 1.68 4 1 4 C1 4.66 1 5.32 1 6 C0.01 6.33 -0.98 6.66 -2 7 C-1.125 1.125 -1.125 1.125 0 0 Z " fill="#508BA2" transform="translate(311,226)"/>
<path d="M0 0 C0.33 0.66 0.66 1.32 1 2 C1.99 1.67 2.98 1.34 4 1 C5.32 1.66 6.64 2.32 8 3 C4.7 3.33 1.4 3.66 -2 4 C-2.33 3.34 -2.66 2.68 -3 2 C-2.01 2 -1.02 2 0 2 C0 1.34 0 0.68 0 0 Z " fill="#212D66" transform="translate(188,224)"/>
<path d="M0 0 C-0.33 0.66 -0.66 1.32 -1 2 C-4.375 2.125 -4.375 2.125 -8 2 C-8.66 1.34 -9.32 0.68 -10 0 C-6.42355152 -1.2380014 -3.66305234 -0.74926071 0 0 Z " fill="#0C122E" transform="translate(285,189)"/>
<path d="M0 0 C-1.32 0.33 -2.64 0.66 -4 1 C-4 1.66 -4 2.32 -4 3 C-6.97 2.67 -9.94 2.34 -13 2 C-13 1.67 -13 1.34 -13 1 C-8.61414671 0.29826347 -4.44209357 -0.10834375 0 0 Z " fill="#5A6074" transform="translate(282,181)"/>
<path d="M0 0 C1.32 0.33 2.64 0.66 4 1 C2.71937515 2.7074998 1.38232443 4.37373596 0 6 C-0.66 6 -1.32 6 -2 6 C-1.49396008 3.83125748 -1.00016187 2.00032373 0 0 Z " fill="#5B5D76" transform="translate(235,384)"/>
<path d="M0 0 C0 0.66 0 1.32 0 2 C-0.66 2 -1.32 2 -2 2 C-2.33 2.99 -2.66 3.98 -3 5 C-5.475 4.01 -5.475 4.01 -8 3 C-3.5 0 -3.5 0 0 0 Z " fill="#5CA3AD" transform="translate(189,258)"/>
<path d="M0 0 C2.475 0.99 2.475 0.99 5 2 C5 2.33 5 2.66 5 3 C1.7 3.33 -1.6 3.66 -5 4 C-3.35 2.68 -1.7 1.36 0 0 Z " fill="#539DAB" transform="translate(286,252)"/>
<path d="M0 0 C2.31 0 4.62 0 7 0 C6.67 0.99 6.34 1.98 6 3 C3.69 2.67 1.38 2.34 -1 2 C-0.67 1.34 -0.34 0.68 0 0 Z " fill="#191C2B" transform="translate(206,240)"/>
<path d="M0 0 C-1 3 -1 3 -3.0625 4.1875 C-3.701875 4.455625 -4.34125 4.72375 -5 5 C-5.33 3.68 -5.66 2.36 -6 1 C-3 0 -3 0 0 0 Z " fill="#297495" transform="translate(283,227)"/>
<path d="M0 0 C1.39195915 4.17587745 -0.17676781 6.13474776 -2 10 C-2.33 10 -2.66 10 -3 10 C-3.36923077 4.58461538 -3.36923077 4.58461538 -1.5 1.625 C-1.005 1.08875 -0.51 0.5525 0 0 Z " fill="#131732" transform="translate(177,201)"/>
<path d="M0 0 C1.65 0 3.3 0 5 0 C5 1.32 5 2.64 5 4 C3.02 4.99 3.02 4.99 1 6 C1.66 4.35 2.32 2.7 3 1 C2.01 1.33 1.02 1.66 0 2 C0 1.34 0 0.68 0 0 Z " fill="#0C1442" transform="translate(304,186)"/>
<path d="M0 0 C0.99 0 1.98 0 3 0 C2.01 2.97 1.02 5.94 0 9 C-0.66 8.67 -1.32 8.34 -2 8 C-1.67 6.68 -1.34 5.36 -1 4 C-0.34 4 0.32 4 1 4 C0.67 2.68 0.34 1.36 0 0 Z " fill="#414759" transform="translate(236,167)"/>
<path d="M0 0 C0.99 0.33 1.98 0.66 3 1 C2.1875 3.4375 2.1875 3.4375 1 6 C0.01 6.33 -0.98 6.66 -2 7 C-2.33 5.68 -2.66 4.36 -3 3 C-2.34 3 -1.68 3 -1 3 C-0.67 2.01 -0.34 1.02 0 0 Z " fill="#212750" transform="translate(227,108)"/>
<path d="M0 0 C1.875 0.1875 1.875 0.1875 4 1 C5.25 3.5625 5.25 3.5625 6 6 C5.01 6.33 4.02 6.66 3 7 C2.87625 6.030625 2.7525 5.06125 2.625 4.0625 C2.41875 3.051875 2.2125 2.04125 2 1 C1.34 0.67 0.68 0.34 0 0 Z " fill="#30385D" transform="translate(206,381)"/>
<path d="M0 0 C2 1 2 1 3.125 3.375 C4 6 4 6 4 9 C3.01 8.67 2.02 8.34 1 8 C0.67 5.36 0.34 2.72 0 0 Z " fill="#444875" transform="translate(209,369)"/>
<path d="M0 0 C0.99 0 1.98 0 3 0 C3 0.66 3 1.32 3 2 C3.66 2 4.32 2 5 2 C5 2.99 5 3.98 5 5 C3.35 4.67 1.7 4.34 0 4 C0 2.68 0 1.36 0 0 Z " fill="#121544" transform="translate(189,356)"/>
<path d="M0 0 C1.32 0.33 2.64 0.66 4 1 C3.01 2.32 2.02 3.64 1 5 C0.01 4.67 -0.98 4.34 -2 4 C-1.34 2.68 -0.68 1.36 0 0 Z " fill="#181D53" transform="translate(317,349)"/>
<path d="M0 0 C2.15377564 2.62198774 3.40072174 4.64404172 4 8 C2.68 7.67 1.36 7.34 0 7 C0 4.69 0 2.38 0 0 Z " fill="#82C3C5" transform="translate(362,311)"/>
<path d="M0 0 C0.99 0 1.98 0 3 0 C3.33 2.97 3.66 5.94 4 9 C1.49701566 6.06171403 0.53069061 3.82097239 0 0 Z " fill="#77B3B9" transform="translate(293,265)"/>
<path d="M0 0 C3.125 -0.1875 3.125 -0.1875 6 0 C6 0.99 6 1.98 6 3 C3.36 3 0.72 3 -2 3 C-1.34 2.01 -0.68 1.02 0 0 Z " fill="#0A0D1B" transform="translate(200,231)"/>
<path d="M0 0 C0.33 0.99 0.66 1.98 1 3 C0.401875 3.144375 -0.19625 3.28875 -0.8125 3.4375 C-2.56150404 3.8872439 -4.28677023 4.42892341 -6 5 C-6 3.68 -6 2.36 -6 1 C-3.92446352 0.4465236 -2.15634036 0 0 0 Z " fill="#276C8D" transform="translate(295,218)"/>
<path d="M0 0 C0.66 0 1.32 0 2 0 C2.33 2.31 2.66 4.62 3 7 C2.34 7 1.68 7 1 7 C0.67 4.69 0.34 2.38 0 0 Z " fill="#121530" transform="translate(242,149)"/>
<path d="M0 0 C2.72727273 4.09090909 2.72727273 4.09090909 3 7 C2.01 7.99 1.02 8.98 0 10 C0 6.7 0 3.4 0 0 Z " fill="#3E4154" transform="translate(218,109)"/>
<path d="M0 0 C1.65 0 3.3 0 5 0 C4.67 1.98 4.34 3.96 4 6 C3.34 6 2.68 6 2 6 C1.34 4.02 0.68 2.04 0 0 Z " fill="#0D163F" transform="translate(222,105)"/>
</svg>
